<?xml version="1.0" encoding="UTF-8" standalone="no"?>
<svg
   id="svg"
   version="1.1"
   width="400"
   height="44.514603"
   viewBox="0 0 400 44.514601"
   sodipodi:docname="dmie-logo.svg"
   inkscape:export-filename="dmie-logo2.svg"
   inkscape:export-xdpi="96"
   inkscape:export-ydpi="96"
   xmlns:inkscape="http://www.inkscape.org/namespaces/inkscape"
   xmlns:sodipodi="http://sodipodi.sourceforge.net/DTD/sodipodi-0.dtd"
   xmlns="http://www.w3.org/2000/svg"
   xmlns:svg="http://www.w3.org/2000/svg">
  <defs
     id="defs79" />
  <sodipodi:namedview
     id="namedview77"
     pagecolor="#ffffff"
     bordercolor="#000000"
     borderopacity="0.25"
     inkscape:showpageshadow="2"
     inkscape:pageopacity="0.0"
     inkscape:pagecheckerboard="0"
     inkscape:deskcolor="#d1d1d1"
     showgrid="false" />
  <g
     id="svgg">
    <path
       id="path0"
       d="m 57.667,23.167 v 21 H 61.583 65.5 V 31.001 17.836 l 2.104,1.624 c 1.158,0.893 2.668,2.073 3.357,2.623 0.688,0.55 1.686,1.3 2.218,1.667 0.531,0.367 1.321,0.986 1.755,1.377 0.433,0.391 1.19,0.977 1.681,1.303 0.491,0.326 1.089,0.775 1.33,0.998 0.24,0.223 0.548,0.405 0.684,0.405 0.27,0 4.41,-3.081 5.039,-3.751 0.214,-0.228 0.477,-0.415 0.584,-0.415 0.106,0 0.899,-0.586 1.762,-1.301 0.863,-0.716 1.838,-1.464 2.165,-1.663 0.328,-0.198 0.781,-0.532 1.007,-0.74 0.574,-0.531 2.622,-2.13 2.727,-2.13 C 91.961,17.833 92,23.758 92,31 v 13.167 h 3.833 3.834 v -21 c 0,-15.367 -0.05,-21 -0.187,-21 -0.102,0 -0.433,0.206 -0.736,0.458 -0.302,0.252 -0.909,0.721 -1.347,1.042 -0.438,0.32 -1.25,0.977 -1.804,1.458 C 95.039,5.606 94.523,6 94.447,6 c -0.076,0 -0.588,0.356 -1.136,0.792 -0.549,0.435 -1.462,1.144 -2.029,1.575 -0.568,0.431 -1.295,0.999 -1.615,1.262 -0.321,0.264 -1.709,1.327 -3.084,2.362 -1.375,1.036 -2.612,2.009 -2.75,2.161 -0.137,0.153 -0.662,0.551 -1.166,0.886 -0.505,0.335 -1.33,0.962 -1.834,1.393 -1.974,1.69 -2.503,1.819 -3.34,0.81 -0.224,-0.27 -5.283,-4.188 -7.009,-5.427 -0.461,-0.332 -1.415,-1.066 -2.12,-1.633 C 67.66,9.615 66.746,8.895 66.333,8.58 65.921,8.266 65.007,7.557 64.302,7.004 63.597,6.452 62.94,6 62.843,6 62.746,6 62.667,5.941 62.667,5.869 62.667,5.797 62.31,5.467 61.875,5.136 58.748,2.758 57.939,2.167 57.811,2.167 c -0.081,0 -0.144,9.236 -0.144,21"
       stroke="none"
       fill="#f34c3c"
       fill-rule="evenodd" />
    <path
       id="path1"
       d="m 6.833,23.25 v 20.917 h 11.562 c 14.038,0 14.165,-0.015 18.644,-2.161 C 45.536,37.936 50.396,27.85 48.246,18.75 48.095,18.108 47.903,17.256 47.82,16.856 47.191,13.813 42.545,7.399 40.027,6.097 39.732,5.944 39.045,5.532 38.502,5.181 37.236,4.363 34.56,3.188 33.54,3.002 29.779,2.319 30.133,2.335 18.292,2.334 L 6.833,2.333 V 23.25 m 24.25,-12.868 c 6.829,1.956 11.231,9.114 9.607,15.622 -0.554,2.225 -2.999,6.654 -3.677,6.664 -0.053,10e-4 -0.523,0.367 -1.045,0.814 -3.023,2.587 -4.317,2.863 -13.926,2.969 L 14.5,36.534 V 23.259 9.985 l 7.792,0.055 c 6.755,0.048 7.924,0.094 8.791,0.342 M 218.407,23.5 c 0,2.796 0.023,3.94 0.051,2.542 0.028,-1.398 0.028,-3.686 0,-5.084 -0.028,-1.398 -0.051,-0.254 -0.051,2.542 m 93.802,19.75 c 0.002,0.367 0.036,0.497 0.076,0.29 0.039,-0.208 0.038,-0.508 -0.004,-0.667 -0.042,-0.159 -0.074,0.01 -0.072,0.377"
       stroke="none"
       fill="#040404"
       fill-rule="evenodd" />
    <path
       id="path2"
       d="m 228.574,7.833 c 0,2.796 0.023,3.94 0.051,2.542 0.028,-1.398 0.028,-3.685 0,-5.083 -0.028,-1.398 -0.051,-0.255 -0.051,2.541 m 45,0 c 0,2.796 0.023,3.94 0.051,2.542 0.028,-1.398 0.028,-3.685 0,-5.083 -0.028,-1.398 -0.051,-0.255 -0.051,2.541 M 146.653,4.087 c -1.179,0.286 -2.652,0.935 -3.375,1.486 C 142.97,5.808 142.642,6 142.549,6 c -0.238,0 -2.216,2.017 -2.216,2.259 0,0.11 -0.118,0.299 -0.263,0.419 -0.42,0.349 -1.204,2.032 -1.574,3.381 -0.33,1.202 -0.339,1.599 -0.293,12.383 l 0.047,11.141 0.435,1.119 c 1.188,3.052 3.131,5.198 5.853,6.465 2.226,1.036 1.548,1 18.584,1 h 15.551 l -0.045,-3.709 -0.045,-3.708 -15.333,-0.083 -15.333,-0.084 -0.736,-0.5 c -1.349,-0.917 -1.424,-1.221 -1.481,-6.041 l -0.049,-4.209 h 12.924 12.925 v -3.75 -3.75 h -12.917 -12.916 l 0.001,-2.125 c 0.003,-2.961 0.462,-3.953 2.127,-4.599 0.644,-0.249 2.157,-0.276 15.792,-0.276 h 15.08 V 7.583 3.833 L 163.125,3.847 C 150.651,3.858 147.4,3.906 146.653,4.087 m 55.097,3.954 v 0.791 l 0.708,10e-4 h 0.709 V 8.1 7.367 l -0.709,-0.059 -0.709,-0.058 0.001,0.791 m 33.955,-0.374 c 0,0.32 0.035,0.452 0.077,0.291 0.041,-0.16 0.041,-0.423 0,-0.583 -0.042,-0.16 -0.077,-0.029 -0.077,0.292 m -4.247,0.79 c 0.757,0.031 1.994,0.031 2.75,0 0.757,-0.031 0.138,-0.056 -1.375,-0.056 -1.512,0 -2.131,0.025 -1.375,0.056 m 56.667,0 c 0.756,0.031 1.994,0.031 2.75,0 0.756,-0.031 0.137,-0.056 -1.375,-0.056 -1.513,0 -2.131,0.025 -1.375,0.056 m -86.317,2.202 0.058,0.841 h 0.659 0.66 l -0.051,-0.792 -0.051,-0.791 -0.666,-0.05 -0.667,-0.049 0.058,0.841 m 0,2.6 0.06,0.759 0.608,-0.051 c 0.586,-0.049 0.609,-0.075 0.659,-0.759 l 0.051,-0.708 h -0.719 -0.719 l 0.06,0.759 m 0.236,1.861 c 0.253,0.038 0.628,0.037 0.833,-0.003 0.205,-0.039 -0.002,-0.071 -0.46,-0.069 -0.459,10e-4 -0.626,0.033 -0.373,0.072 m -0.211,0.963 v 0.75 h 0.667 0.667 v -0.75 -0.75 h -0.667 -0.667 v 0.75 m 0.07,1.976 c -0.261,0.681 -0.006,1.191 0.597,1.191 0.879,0 0.917,-1.301 0.041,-1.386 -0.363,-0.035 -0.575,0.03 -0.638,0.195 m 17.225,0.228 c 0.3,0.038 0.75,0.037 1,-10e-4 0.25,-0.038 0.005,-0.069 -0.545,-0.068 -0.55,0.001 -0.755,0.032 -0.455,0.069 m 7.749,-10e-4 c 0.254,0.039 0.629,0.038 0.834,-0.002 0.205,-0.04 -0.003,-0.071 -0.461,-0.07 -0.458,0.002 -0.626,0.034 -0.373,0.072 m 6.415,-0.002 c 0.206,0.04 0.543,0.04 0.75,0 0.206,-0.039 0.037,-0.072 -0.375,-0.072 -0.413,0 -0.582,0.033 -0.375,0.072 m 6.583,-0.002 c 0.16,0.041 0.423,0.041 0.583,0 0.161,-0.042 0.029,-0.077 -0.291,-0.077 -0.321,0 -0.452,0.035 -0.292,0.077 m 6.5,0 c 0.16,0.041 0.423,0.041 0.583,0 0.161,-0.042 0.029,-0.077 -0.291,-0.077 -0.321,0 -0.452,0.035 -0.292,0.077 m 3.585,0.003 c 0.208,0.039 0.508,0.038 0.667,-0.004 0.159,-0.042 -0.01,-0.074 -0.377,-0.072 -0.367,0.002 -0.497,0.036 -0.29,0.076 m 6.5,0 c 0.208,0.039 0.508,0.038 0.667,-0.004 0.159,-0.042 -0.01,-0.074 -0.377,-0.072 -0.367,0.002 -0.497,0.036 -0.29,0.076 m 4.841,0.006 c 0.944,0.03 2.444,0.03 3.333,0 0.889,-0.03 0.116,-0.054 -1.717,-0.054 -1.834,0 -2.561,0.024 -1.616,0.054 m 9.159,-0.006 c 0.208,0.039 0.508,0.038 0.667,-0.004 0.159,-0.042 -0.01,-0.074 -0.377,-0.072 -0.367,0.002 -0.497,0.036 -0.29,0.076 m 17.415,0.006 c 1.077,0.029 2.84,0.029 3.917,0 1.077,-0.029 0.195,-0.053 -1.959,-0.053 -2.154,0 -3.035,0.024 -1.958,0.053 m 7.585,-0.006 c 0.208,0.039 0.508,0.038 0.667,-0.004 0.159,-0.042 -0.01,-0.074 -0.377,-0.072 -0.367,0.002 -0.497,0.036 -0.29,0.076 m 6.5,0 c 0.208,0.039 0.508,0.038 0.667,-0.004 0.159,-0.042 -0.01,-0.074 -0.377,-0.072 -0.367,0.002 -0.497,0.036 -0.29,0.076 m 4.422,0.005 c 0.622,0.033 1.597,0.032 2.167,0 0.569,-0.033 0.059,-0.059 -1.132,-0.059 -1.192,10e-4 -1.658,0.027 -1.035,0.059 m 9.412,-0.005 c 0.207,0.039 0.507,0.038 0.666,-0.004 0.16,-0.042 -0.01,-0.074 -0.377,-0.072 -0.366,0.002 -0.497,0.036 -0.289,0.076 m 3.666,0 c 0.208,0.039 0.508,0.038 0.667,-0.004 0.159,-0.042 -0.01,-0.074 -0.377,-0.072 -0.367,0.002 -0.497,0.036 -0.29,0.076 m 6.415,-0.003 c 0.16,0.041 0.423,0.041 0.583,0 0.161,-0.042 0.029,-0.077 -0.291,-0.077 -0.321,0 -0.452,0.035 -0.292,0.077 m 20.252,0.003 c 0.207,0.039 0.507,0.038 0.667,-0.004 0.159,-0.042 -0.011,-0.074 -0.377,-0.072 -0.367,0.002 -0.497,0.036 -0.29,0.076 m 6.5,0 c 0.207,0.039 0.507,0.038 0.667,-0.004 0.159,-0.042 -0.011,-0.074 -0.377,-0.072 -0.367,0.002 -0.497,0.036 -0.29,0.076 m 6.5,0 c 0.207,0.039 0.507,0.038 0.667,-0.004 0.159,-0.042 -0.011,-0.074 -0.377,-0.072 -0.367,0.002 -0.497,0.036 -0.29,0.076 m 4.087,0.005 c 0.531,0.033 1.356,0.033 1.834,-10e-4 0.478,-0.033 0.044,-0.06 -0.965,-0.06 -1.008,0 -1.399,0.028 -0.869,0.061 m -37.809,3.877 c 0,2.062 0.024,2.906 0.053,1.875 0.029,-1.032 0.029,-2.719 0,-3.75 -0.029,-1.032 -0.053,-0.188 -0.053,1.875 m -123.597,-0.959 -0.058,0.709 0.708,-0.059 c 0.703,-0.058 0.709,-0.064 0.709,-0.708 0,-1.067 -1.27,-1.012 -1.359,0.058 m -0.004,2.634 c -0.078,0.819 -0.073,0.825 0.724,0.825 h 0.639 v -0.75 -0.75 h -0.649 c -0.638,0 -0.651,0.012 -0.714,0.675 m 0.018,1.891 c -0.045,0.046 -0.053,0.391 -0.017,0.767 0.1,1.055 1.278,0.978 1.278,-0.083 0,-0.63 -0.852,-1.092 -1.261,-0.684 m -0.09,2.864 c 0.056,0.145 0.101,0.445 0.101,0.667 0,0.359 0.073,0.403 0.667,0.403 h 0.667 V 29 28.333 h -0.768 c -0.632,0 -0.75,0.047 -0.667,0.264 m 0.075,3.153 -0.059,0.75 h 0.709 0.71 V 31.75 31 h -0.65 -0.65 l -0.06,0.75 m 0.001,2.576 c 0.057,0.833 0.063,0.841 0.622,0.841 1.083,0 1.07,-1.553 -0.013,-1.633 l -0.667,-0.049 0.058,0.841 m 0.006,1.915 c -0.041,0.041 -0.045,0.383 -0.009,0.759 0.103,1.078 1.25,0.969 1.33,-0.125 l 0.051,-0.708 h -0.649 c -0.356,0 -0.682,0.033 -0.723,0.074 m 138.257,4.009 c 0,2.017 0.024,2.819 0.054,1.782 0.029,-1.036 0.029,-2.686 -10e-4,-3.666 -0.029,-0.981 -0.053,-0.133 -0.053,1.884 M 202.208,38.782 c 0.161,0.041 0.423,0.041 0.584,0 0.16,-0.042 0.029,-0.077 -0.292,-0.077 -0.321,0 -0.452,0.035 -0.292,0.077 m 126.164,0.551 c 0,0.321 0.034,0.452 0.076,0.292 0.042,-0.16 0.042,-0.423 0,-0.583 -0.042,-0.161 -0.076,-0.03 -0.076,0.291 m -126.568,0.34 c -0.055,0.581 -0.014,0.685 0.303,0.764 0.741,0.186 0.973,0.021 1.028,-0.73 L 203.186,39 h -0.659 c -0.648,0 -0.66,0.011 -0.723,0.673 m 0.005,2.545 -0.059,0.736 0.667,-0.019 c 1.001,-0.028 1.056,-1.319 0.059,-1.402 -0.607,-0.051 -0.608,-0.051 -0.667,0.685"
       stroke="none"
       fill="#948c74"
       fill-rule="evenodd" />
    <path
       id="path3"
       d="m 115.833,23.25 v 20.917 h 3.834 3.833 V 23.25 2.333 h -3.833 -3.834 V 23.25 M 283.407,7.75 c 0,2.75 0.023,3.898 0.051,2.552 0.028,-1.346 0.028,-3.596 0,-5 C 283.43,3.898 283.407,5 283.407,7.75"
       stroke="none"
       fill="#444444"
       fill-rule="evenodd" />
    <path
       id="path4"
       d="m 320,2.677 c -0.321,0.076 -0.781,0.187 -1.023,0.246 -2.98,0.734 -3.73,7.141 -1.06,9.059 2.868,2.061 6.751,1.019 7.694,-2.065 C 326.963,5.495 324.036,1.719 320,2.677 M 218.625,2.757 C 218.556,2.829 218.5,5.126 218.5,7.861 v 4.972 l 2.625,-0.007 c 4.603,-0.013 5.791,-1.039 5.783,-4.993 -0.006,-2.814 -0.795,-4.338 -2.492,-4.815 -0.813,-0.229 -5.617,-0.445 -5.791,-0.261 m 10.042,4.993 v 5.083 h 3.75 3.75 V 12.167 11.5 h -3 -3 V 9.917 8.333 h 2.732 2.733 l 0.064,-0.675 c 0.085,-0.886 0.293,-0.825 -2.807,-0.825 h -2.722 V 5.5 4.167 h 2.916 2.917 v -0.75 -0.75 h -3.667 -3.666 V 7.75 m 9.166,0 v 5.083 h 0.75 0.75 V 10.849 8.865 l 2.299,-0.057 c 2.993,-0.075 3.787,-0.637 3.999,-2.83 0.246,-2.548 -1.131,-3.307 -6.006,-3.31 L 237.833,2.667 V 7.75 m 10.682,-4.375 c -0.176,0.39 -0.413,1.008 -0.527,1.375 -0.113,0.367 -0.64,1.754 -1.171,3.083 -2.193,5.494 -2.105,5.035 -0.956,4.967 l 0.86,-0.05 0.515,-1.458 0.514,-1.458 1.917,0.002 1.916,0.002 0.593,1.456 0.592,1.456 0.866,0.05 c 0.94,0.055 1.013,-0.033 0.634,-0.767 -0.128,-0.247 -0.57,-1.35 -0.982,-2.45 -0.412,-1.1 -0.937,-2.412 -1.166,-2.916 -0.229,-0.505 -0.661,-1.517 -0.96,-2.25 -0.699,-1.714 -0.732,-1.75 -1.596,-1.75 -0.696,0 -0.743,0.031 -1.049,0.708 m 6.943,-0.618 c -0.068,0.073 -0.125,2.369 -0.125,5.104 v 4.972 h 0.75 0.75 v -2.19 -2.191 l 1.277,0.096 c 1.524,0.116 1.618,0.191 3.236,2.579 l 1.098,1.623 0.966,0.051 c 0.791,0.041 0.949,0.006 0.873,-0.193 -0.187,-0.487 -2.007,-3.205 -2.489,-3.716 L 261.3,8.366 261.692,8.248 c 2.256,-0.683 2.454,-4.606 0.267,-5.268 -0.683,-0.207 -6.332,-0.4 -6.501,-0.223 m 8.989,0.018 c -0.062,0.063 -0.114,0.401 -0.114,0.753 V 4.167 H 266 267.667 V 8.5 12.833 h 0.75 0.75 V 8.5 4.167 h 1.676 1.676 L 272.468,3.458 272.417,2.75 268.489,2.705 c -2.16,-0.024 -3.979,0.007 -4.042,0.07 m 9.22,4.975 v 5.083 h 0.666 0.667 l 0.009,-3.875 0.008,-3.875 1.006,2.834 c 0.553,1.558 1.168,3.301 1.366,3.873 l 0.361,1.039 0.706,0.002 c 0.814,0.003 0.832,-0.026 1.75,-2.831 0.286,-0.871 0.75,-2.248 1.031,-3.061 l 0.513,-1.477 0.045,3.686 0.045,3.685 h 0.788 l 0.789,10e-4 -0.084,-5.042 -0.083,-5.042 h -0.982 -0.981 l -0.29,0.833 c -0.16,0.459 -0.404,1.209 -0.543,1.667 -0.139,0.458 -0.49,1.471 -0.781,2.25 -0.291,0.779 -0.643,1.754 -0.784,2.167 -0.38,1.116 -0.437,1.096 -0.87,-0.301 -2.102,-6.774 -2.065,-6.699 -3.373,-6.699 h -0.979 V 7.75 m 11.614,-4.975 c -0.063,0.062 -0.114,2.351 -0.114,5.086 v 4.972 H 289 292.833 V 12.167 11.5 h -3 -3 V 9.917 8.333 h 2.76 2.759 L 292.301,7.625 292.25,6.917 289.542,6.871 286.833,6.825 V 5.496 4.167 h 2.927 2.926 L 292.635,3.458 292.583,2.75 288.989,2.705 c -1.976,-0.024 -3.645,0.007 -3.708,0.07 M 294.5,7.75 v 5.083 h 0.747 0.746 l 0.045,-3.579 0.045,-3.578 1.167,1.672 c 0.642,0.92 1.238,1.8 1.324,1.954 0.087,0.155 0.642,1.013 1.232,1.906 l 1.074,1.625 h 0.81 0.81 V 7.74 2.648 L 301.792,2.699 301.083,2.75 301,6.333 300.917,9.917 300.25,8.982 C 299.883,8.469 299.096,7.28 298.5,6.34 296.396,3.024 296.079,2.667 295.236,2.667 H 294.5 V 7.75 m 9.333,-4.336 V 4.167 H 305.417 307 V 8.5 12.833 h 0.833 0.834 V 8.506 4.179 l 1.625,-0.048 1.625,-0.048 V 3.417 2.75 L 307.875,2.705 303.833,2.661 V 3.414 M 327.5,7.75 v 5.083 h 0.75 0.75 V 10.671 8.509 l 2.375,-0.046 2.375,-0.046 V 7.667 6.917 L 331.375,6.87 329,6.824 V 5.495 4.167 h 2.667 2.666 V 3.417 2.667 H 330.917 327.5 V 7.75 m -4.69,-3.295 c 1.555,1.154 2.006,4.034 0.89,5.686 -2.108,3.121 -6.142,1.223 -5.824,-2.741 0.225,-2.799 2.944,-4.422 4.934,-2.945 M 260.583,4.162 c 1.207,0.279 1.752,1.339 1.095,2.127 C 261.197,6.866 260.627,7 258.656,7 h -1.823 V 5.5 4 l 1.542,0.004 c 0.848,0.002 1.842,0.073 2.208,0.158 m -36.839,0.242 c 1.846,0.771 2.209,4.721 0.587,6.38 -0.58,0.593 -1.068,0.716 -2.852,0.716 h -1.312 V 7.833 4.167 h 1.505 c 0.924,0 1.724,0.091 2.072,0.237 m 19.569,0.034 c 1.832,1.283 0.624,2.895 -2.169,2.895 h -1.811 V 5.75 4.167 h 1.797 c 1.389,0 1.883,0.061 2.183,0.271 m 6.982,1.77 c 0.294,0.757 0.583,1.619 0.641,1.917 l 0.106,0.542 h -1.438 c -0.79,0 -1.437,-0.036 -1.437,-0.079 0,-0.044 0.234,-0.663 0.52,-1.375 0.286,-0.713 0.589,-1.54 0.674,-1.838 0.226,-0.792 0.341,-0.689 0.934,0.833 m -48.17,1.076 c 0.206,0.04 0.544,0.04 0.75,0 0.206,-0.039 0.037,-0.072 -0.375,-0.072 -0.412,0 -0.581,0.033 -0.375,0.072 m -0.416,0.799 c 0.002,0.367 0.036,0.497 0.076,0.29 0.039,-0.207 0.038,-0.507 -0.004,-0.667 -0.042,-0.159 -0.074,0.011 -0.072,0.377 m 0.005,2.667 c 0.002,0.458 0.034,0.626 0.072,0.373 0.039,-0.254 0.038,-0.629 -0.002,-0.834 -0.04,-0.205 -0.071,0.003 -0.07,0.461 m -0.018,2.625 -0.029,0.792 h 0.75 c 0.412,0 0.75,-0.059 0.75,-0.13 0,-0.071 -0.296,-0.101 -0.657,-0.067 l -0.656,0.063 -0.064,-0.725 -0.065,-0.725 -0.029,0.792 m 0,2.583 0.029,0.792 0.063,-0.699 c 0.063,-0.688 0.075,-0.7 0.763,-0.763 l 0.699,-0.063 -0.792,-0.029 -0.791,-0.029 0.029,0.791 m -0.029,2.625 c 0,0.413 0.056,0.75 0.125,0.75 0.068,0 0.125,-0.337 0.125,-0.75 0,-0.412 -0.057,-0.75 -0.125,-0.75 -0.069,0 -0.125,0.338 -0.125,0.75 m 78.416,-0.471 c -3.452,0.715 -5.09,4.551 -3.439,8.056 1.63,3.456 6.453,3.475 8.138,0.031 0.478,-0.976 0.438,-1.086 -0.489,-1.336 -0.689,-0.186 -0.667,-0.202 -0.951,0.681 -0.68,2.108 -4.138,2.156 -5.201,0.072 -0.437,-0.857 -0.581,-2.477 -0.317,-3.577 0.675,-2.815 4.58,-3.296 5.549,-0.684 0.11,0.295 1.627,0.087 1.627,-0.223 0,-1.598 -2.971,-3.422 -4.917,-3.02 m 52.474,0.073 c -4.591,0.83 -5.545,7.649 -1.39,9.941 1.67,0.921 4.536,0.703 6.125,-0.467 L 338,27.138 v -1.986 -1.985 h -2.167 -2.166 v 0.75 0.75 h 1.425 1.425 l -0.05,0.859 c -0.086,1.463 -2.918,2.209 -4.634,1.221 -1.648,-0.949 -2.041,-4.265 -0.713,-6.024 1.181,-1.565 4.276,-1.372 5.102,0.319 0.327,0.67 0.516,0.737 1.197,0.427 0.502,-0.229 0.472,-0.595 -0.14,-1.719 -0.658,-1.21 -2.784,-1.915 -4.722,-1.565 M 219.542,18.3 218.5,18.349 v 5.076 5.075 h 0.747 0.747 l 0.045,-3.792 0.044,-3.791 0.474,1.5 c 0.261,0.825 0.736,2.25 1.056,3.166 0.32,0.917 0.66,1.952 0.757,2.3 0.172,0.625 0.185,0.633 0.921,0.584 l 0.746,-0.05 0.412,-1.084 c 0.514,-1.348 1.838,-5.022 2.132,-5.916 0.195,-0.593 0.221,-0.236 0.236,3.208 l 0.016,3.875 h 0.753 0.752 l -0.044,-5.042 -0.044,-5.041 -1.032,-0.05 -1.031,-0.049 -0.158,0.549 c -0.086,0.302 -0.577,1.692 -1.09,3.088 -0.513,1.396 -0.972,2.761 -1.02,3.033 -0.288,1.634 -0.387,1.561 -1.247,-0.911 -1.345,-3.866 -2.04,-5.827 -2.065,-5.827 -0.013,0 -0.492,0.022 -1.065,0.05 m 26.425,-0.051 c -0.019,0 -0.075,1.647 -0.125,3.658 l -0.092,3.658 -0.986,-1.574 c -0.542,-0.866 -1.34,-2.062 -1.774,-2.658 -0.433,-0.596 -0.938,-1.354 -1.123,-1.685 -0.745,-1.337 -0.717,-1.315 -1.657,-1.315 h -0.877 v 5.084 5.083 h 0.83 0.83 l 0.045,-3.625 0.045,-3.625 0.498,0.833 c 0.714,1.195 0.729,1.217 1.906,2.937 0.588,0.86 1.132,1.588 1.208,1.619 0.076,0.03 0.138,0.15 0.138,0.267 0,0.725 1,1.594 1.835,1.594 h 0.832 v -5.067 -5.066 l -0.75,-0.06 c -0.412,-0.033 -0.765,-0.059 -0.783,-0.058 m 3.421,0.391 c -0.156,0.619 0.065,7.044 0.264,7.704 0.882,2.916 6.015,3.294 7.369,0.542 0.377,-0.764 0.398,-0.99 0.448,-4.719 l 0.052,-3.917 h -0.719 -0.719 l -0.085,3.667 c -0.109,4.682 -0.378,5.25 -2.489,5.25 -2.205,0 -2.414,-0.424 -2.478,-5.026 l -0.053,-3.776 -0.746,-0.059 c -0.668,-0.053 -0.756,-0.018 -0.844,0.334 m 40.311,-0.348 -4.051,0.047 0.051,0.706 0.051,0.705 1.625,0.048 1.625,0.047 v 4.328 4.327 h 0.833 0.834 v -4.333 -4.334 h 1.583 1.583 V 19 c 0,-0.458 -0.018,-0.816 -0.041,-0.795 -0.023,0.021 -1.865,0.06 -4.093,0.087 m 5.345,3.872 c 0.104,5.817 0.65,6.633 4.331,6.479 3.038,-0.127 3.676,-1.174 3.767,-6.173 0.078,-4.321 0.095,-4.241 -0.885,-4.163 l -0.757,0.06 v 3.48 c 0,4.716 -0.176,5.129 -2.241,5.261 -2.371,0.151 -2.651,-0.376 -2.731,-5.134 l -0.06,-3.61 -0.747,-0.059 -0.747,-0.059 0.07,3.918 m 20.289,1.211 V 28.5 h 0.75 0.75 V 23.375 18.25 h -0.75 -0.75 v 5.125 m 4.375,-5.086 -0.708,0.063 v 5.074 5.074 h 0.75 0.75 v -3.613 -3.613 l 0.741,1.071 c 0.407,0.59 0.857,1.218 1,1.397 0.142,0.179 0.259,0.383 0.259,0.453 0,0.136 1.293,2.09 1.598,2.415 0.099,0.106 0.426,0.575 0.726,1.041 0.533,0.831 0.561,0.849 1.36,0.849 H 327 v -5.067 -5.066 l -0.75,-0.06 -0.75,-0.059 -10e-4,3.834 c -0.001,3.257 -0.034,3.772 -0.219,3.418 -0.272,-0.521 -0.824,-1.389 -0.953,-1.5 -0.105,-0.089 -1.536,-2.22 -2.996,-4.458 -0.493,-0.757 -0.901,-1.362 -0.906,-1.346 -0.004,0.016 -0.327,0.058 -0.717,0.093 m 32.459,5.086 V 28.5 h 0.75 0.75 v -3.702 -3.702 l 0.862,1.327 c 0.474,0.73 1.271,1.927 1.77,2.66 0.499,0.734 1.215,1.806 1.59,2.383 l 0.682,1.049 0.839,-0.049 0.84,-0.049 0.044,-4.915 c 0.052,-5.709 0.123,-5.274 -0.857,-5.196 l -0.77,0.061 v 3.688 3.689 l -0.375,-0.584 c -0.207,-0.322 -0.45,-0.704 -0.542,-0.85 -0.421,-0.668 -2.317,-3.402 -2.411,-3.477 -0.058,-0.046 -0.32,-0.458 -0.582,-0.916 -0.846,-1.478 -1.01,-1.625 -1.84,-1.647 l -0.751,-0.02 10e-4,5.125 m 11.875,-5.078 -1.875,0.047 v 5.078 5.078 l 2.625,-0.002 c 4.426,-0.002 5.756,-1.172 5.776,-5.081 0.022,-4.086 -1.458,-5.247 -6.526,-5.12 m -131.629,1.161 c -0.248,0.619 -0.744,1.875 -1.101,2.792 -0.357,0.917 -0.754,1.892 -0.882,2.167 -0.129,0.275 -0.363,0.95 -0.52,1.5 -0.157,0.55 -0.379,1.187 -0.493,1.416 -0.557,1.116 -0.529,1.19 0.425,1.135 l 0.871,-0.051 0.515,-1.459 0.515,-1.458 h 2.045 c 1.878,0 2.045,0.025 2.045,0.308 0,0.169 0.212,0.826 0.471,1.458 l 0.471,1.151 0.946,0.05 c 1.16,0.061 1.21,0.434 -0.471,-3.477 -0.779,-1.812 -1.416,-3.357 -1.415,-3.434 0.001,-0.077 -0.281,-0.833 -0.625,-1.681 l -0.627,-1.541 -0.858,-0.001 h -0.859 l -0.453,1.125 M 259.5,23.417 V 28.5 h 0.833 0.834 V 26.25 24 h 2.25 2.25 V 23.25 22.5 h -2.25 -2.25 v -1.333 -1.334 h 2.666 2.667 v -0.75 -0.75 h -3.5 -3.5 v 5.084 m 10.225,-4.801 c -0.057,0.165 -0.281,0.757 -0.498,1.314 -0.216,0.557 -0.393,1.082 -0.392,1.166 0.002,0.194 -2.334,6.084 -2.687,6.777 -0.271,0.53 -0.155,0.627 0.746,0.627 h 0.895 l 0.439,-1.208 c 0.242,-0.665 0.44,-1.34 0.439,-1.5 0,-0.262 0.205,-0.292 1.987,-0.292 h 1.988 l 0.407,0.888 c 0.223,0.488 0.497,1.163 0.608,1.5 0.2,0.606 0.211,0.612 1.117,0.612 1.006,0 1.032,-0.066 0.455,-1.2 -0.126,-0.248 -0.485,-1.148 -0.797,-2 -0.313,-0.853 -1.089,-2.75 -1.726,-4.217 l -1.156,-2.666 -0.86,-0.051 c -0.707,-0.041 -0.879,0.003 -0.965,0.25 M 305,23.407 V 28.5 h 0.833 0.834 v -2.167 -2.166 h 1.167 c 1.279,0 2.156,0.602 2.665,1.832 0.115,0.275 0.274,0.501 0.355,0.501 0.08,0 0.146,0.076 0.146,0.169 0,0.092 0.244,0.541 0.542,0.997 l 0.541,0.828 0.959,0.003 c 0.527,0.002 0.958,-0.039 0.958,-0.09 0,-0.389 -1.961,-3.393 -2.622,-4.016 l -0.56,-0.528 0.543,-0.119 c 2.161,-0.475 2.657,-3.591 0.783,-4.927 -0.539,-0.385 -0.685,-0.402 -3.852,-0.452 L 305,18.314 v 5.093 m 39.936,-3.448 c -0.984,2.468 -1.575,4.041 -1.518,4.041 0.028,0 -0.349,0.979 -0.839,2.176 -0.965,2.362 -0.963,2.389 0.185,2.293 0.63,-0.052 0.635,-0.058 1.198,-1.511 l 0.565,-1.458 h 1.96 1.96 l 0.43,1.125 c 0.236,0.619 0.478,1.294 0.538,1.5 0.094,0.33 0.217,0.375 1.013,0.375 1.067,0 1.08,-0.043 0.437,-1.417 -0.258,-0.55 -0.644,-1.45 -0.859,-2 -0.215,-0.55 -0.455,-1.071 -0.532,-1.158 -0.077,-0.087 -0.141,-0.279 -0.141,-0.427 0,-0.148 -0.15,-0.579 -0.333,-0.959 -0.183,-0.379 -0.333,-0.801 -0.333,-0.938 0,-0.136 -0.063,-0.287 -0.141,-0.335 -0.077,-0.047 -0.388,-0.727 -0.69,-1.51 l -0.55,-1.423 -0.852,0.001 h -0.851 l -0.647,1.625 m -34.686,-0.13 c 1.279,0.296 1.656,1.458 0.763,2.35 -0.483,0.483 -0.506,0.488 -2.417,0.488 h -1.929 v -1.5 -1.5 l 1.458,0.004 c 0.802,0.002 1.758,0.073 2.125,0.158 m 56.988,0.196 c 1.91,0.717 2.421,4.438 0.858,6.246 l -0.534,0.618 -1.864,0.077 -1.865,0.077 v -3.605 -3.605 h 1.447 c 0.795,0 1.677,0.087 1.958,0.192 m -95.886,1.738 c 0.286,0.818 0.581,1.693 0.656,1.945 l 0.135,0.459 h -1.424 c -1.281,0 -1.415,-0.03 -1.331,-0.292 0.243,-0.761 1.367,-3.673 1.403,-3.638 0.023,0.022 0.275,0.709 0.561,1.526 m 76.204,1.52 c 0.44,0.848 0.394,0.884 -1.139,0.884 -0.78,0 -1.417,-0.019 -1.416,-0.042 0,-0.023 0.213,-0.567 0.472,-1.208 0.26,-0.642 0.575,-1.521 0.701,-1.954 l 0.229,-0.787 0.438,1.287 c 0.241,0.708 0.563,1.527 0.715,1.82 m -113.174,-1.2 c 0.315,0.825 0.629,1.632 0.697,1.792 0.112,0.265 -0.009,0.292 -1.311,0.292 -0.789,0 -1.435,-0.036 -1.435,-0.08 0,-0.044 0.104,-0.363 0.231,-0.709 0.126,-0.345 0.405,-1.17 0.62,-1.833 0.455,-1.409 0.452,-1.411 1.198,0.538 m -32.648,-0.876 0.016,0.71 0.75,0.018 0.75,0.018 -0.699,-0.069 c -0.678,-0.067 -0.701,-0.089 -0.767,-0.728 l -0.067,-0.658 0.017,0.709 m -0.039,2.501 0.028,0.709 0.065,-0.616 c 0.062,-0.59 0.094,-0.619 0.763,-0.679 l 0.699,-0.064 -0.792,-0.029 -0.791,-0.029 0.028,0.708 m 0.014,2.875 c 0.002,0.367 0.036,0.497 0.076,0.29 0.039,-0.207 0.038,-0.507 -0.004,-0.667 -0.042,-0.159 -0.074,0.011 -0.072,0.377 m -0.016,2.625 -0.026,0.625 0.791,-0.029 0.792,-0.029 -0.698,-0.063 c -0.645,-0.059 -0.704,-0.105 -0.765,-0.596 -0.065,-0.513 -0.068,-0.51 -0.094,0.092 m 0.003,2.417 0.029,0.792 0.063,-0.7 c 0.063,-0.687 0.075,-0.7 0.763,-0.762 l 0.699,-0.063 -0.792,-0.03 -0.791,-0.029 0.029,0.792 m 53.288,2.036 c -1.475,0.274 -2.333,1.188 -2.451,2.61 -0.146,1.765 0.648,2.464 3.688,3.243 2.659,0.681 3.243,1.981 1.332,2.965 -1.347,0.694 -3.886,-0.352 -3.886,-1.599 0,-0.346 -0.077,-0.38 -0.852,-0.38 h -0.852 l 0.114,0.625 c 0.351,1.918 1.586,2.886 3.83,3.004 2.945,0.154 4.452,-1.072 4.225,-3.435 -0.073,-0.755 -0.869,-2.179 -1.093,-1.955 -0.045,0.044 -0.278,-0.02 -0.518,-0.144 -0.241,-0.124 -1.075,-0.394 -1.854,-0.6 -2.201,-0.584 -2.66,-0.871 -2.664,-1.666 -0.005,-0.669 0.601,-1.057 1.767,-1.133 1.529,-0.098 2.563,0.532 2.563,1.562 0,0.266 0.198,0.294 0.98,0.138 0.585,-0.117 0.66,-0.439 0.326,-1.413 -0.485,-1.416 -2.531,-2.217 -4.655,-1.822 m 72.407,0.013 c -3.057,0.604 -4.766,4.171 -3.548,7.403 1.175,3.119 5.062,4.081 8.342,2.063 L 333,42.638 v -1.986 -1.985 h -2.232 -2.233 l -0.064,0.675 c -0.083,0.863 -0.152,0.825 1.473,0.825 h 1.389 v 0.818 c 0,2.335 -5.294,2.083 -5.957,-0.284 -0.244,-0.872 -0.135,-3.412 0.172,-3.984 1.111,-2.076 4.952,-2.153 5.625,-0.114 0.21,0.634 0.184,0.625 1.036,0.388 0.572,-0.159 0.617,-0.213 0.517,-0.624 -0.494,-2.027 -2.805,-3.194 -5.335,-2.693 m 67.243,-0.011 c -3.003,0.538 -4.563,3.489 -3.697,6.993 0.773,3.128 4.601,4.511 7.831,2.829 l 1.149,-0.597 0.046,-2.111 0.047,-2.11 h -2.172 -2.171 v 0.75 0.75 h 1.416 1.417 v 0.748 c 0,1.926 -3.611,2.39 -5.274,0.677 -1.677,-1.726 -0.923,-5.667 1.196,-6.26 1.814,-0.508 3.246,-0.082 3.78,1.125 0.41,0.927 1.897,0.825 1.716,-0.118 -0.366,-1.899 -2.785,-3.124 -5.284,-2.676 m -192.92,0.754 c 0.002,0.458 0.034,0.626 0.072,0.372 0.039,-0.253 0.038,-0.628 -0.002,-0.833 -0.04,-0.205 -0.071,0.002 -0.07,0.461 m 17.072,-0.647 c -0.066,0.065 -0.119,2.394 -0.119,5.174 V 44 h 0.835 0.836 l -0.044,-5.125 -0.044,-5.125 -0.673,-0.05 c -0.37,-0.027 -0.726,0.005 -0.791,0.07 m 3.547,5.054 V 44 h 0.747 0.747 l 0.045,-3.708 0.045,-3.709 2.468,3.709 2.469,3.708 h 0.823 0.823 v -5.176 -5.176 l -0.708,0.051 -0.709,0.051 -0.083,3.721 -0.083,3.72 L 228,39.822 c -0.504,-0.753 -0.992,-1.488 -1.083,-1.633 -0.447,-0.707 -1.5,-2.291 -1.622,-2.439 -0.075,-0.092 -0.419,-0.579 -0.763,-1.083 -0.594,-0.871 -0.665,-0.92 -1.412,-0.968 l -0.787,-0.051 v 5.176 M 232.5,38.807 V 44 h 2.585 c 4.115,0 5.493,-1.066 5.86,-4.535 0.408,-3.849 -1.321,-5.57 -5.771,-5.745 L 232.5,33.614 v 5.193 m 9.938,-4.885 c -0.159,0.414 -0.119,4.968 0.058,6.655 0.275,2.609 1.369,3.588 4.004,3.584 3.481,-0.004 4.154,-1.12 4.111,-6.819 l -0.028,-3.592 -0.392,-0.055 c -0.215,-0.031 -0.571,-0.011 -0.791,0.044 l -0.4,0.101 -0.004,3.205 c -0.006,4.819 -0.361,5.622 -2.486,5.622 -2.055,0 -2.242,-0.405 -2.343,-5.084 l -0.084,-3.833 -0.77,-0.05 c -0.59,-0.038 -0.795,0.014 -0.875,0.222 m 18.676,-0.147 C 261.051,33.838 261,34.214 261,34.611 v 0.722 h 1.667 1.666 V 39.667 44 h 0.75 0.75 v -4.327 -4.328 l 1.625,-0.047 1.625,-0.048 V 34.5 33.75 l -3.927,-0.045 c -2.16,-0.024 -3.979,0.007 -4.042,0.07 m 9.344,-0.018 c -0.068,0.073 -0.125,2.407 -0.125,5.187 V 44 h 0.75 0.75 v -2.167 -2.166 l 0.709,-0.018 c 1.945,-0.048 2.189,0.137 4.034,3.059 L 277.392,44 h 0.97 c 0.534,0 0.971,-0.032 0.971,-0.071 0,-0.165 -1.214,-2.095 -1.431,-2.274 -0.129,-0.108 -0.235,-0.302 -0.235,-0.433 0,-0.13 -0.342,-0.601 -0.759,-1.047 l -0.758,-0.81 0.564,-0.187 c 2.137,-0.705 2.357,-4.113 0.329,-5.08 -0.673,-0.321 -6.326,-0.613 -6.585,-0.341 m 10.153,0.021 c -0.061,0.061 -0.111,2.386 -0.111,5.166 V 44 h 0.833 0.834 v -5.066 c 0,-4.465 -0.032,-5.077 -0.264,-5.166 -0.352,-0.135 -1.153,-0.129 -1.292,0.01 m 6.279,0.097 c -0.071,0.115 -0.289,0.658 -0.485,1.208 -0.195,0.55 -0.807,2.125 -1.36,3.5 -1.043,2.597 -1.878,4.925 -1.878,5.237 0,0.104 0.335,0.18 0.794,0.18 h 0.794 l 0.297,-0.875 c 0.164,-0.481 0.418,-1.156 0.565,-1.5 L 285.884,41 h 1.934 1.934 l 0.221,0.708 c 0.121,0.39 0.375,1.068 0.564,1.508 l 0.344,0.8 0.851,-0.05 c 0.744,-0.043 0.845,-0.091 0.801,-0.383 -0.054,-0.353 -1.259,-3.325 -2.028,-5 -0.252,-0.55 -0.59,-1.375 -0.749,-1.833 -1.008,-2.888 -1.135,-3.083 -1.994,-3.083 -0.414,0 -0.8,0.092 -0.872,0.208 m 6.443,4.958 V 44 h 3.25 3.25 V 43.25 42.5 H 297.417 295 v -4.417 -4.416 h -0.833 -0.834 v 5.166 m 11.244,-4.959 c -0.045,0.117 -0.062,2.425 -0.038,5.128 l 0.044,4.915 3.792,0.044 3.792,0.045 V 43.253 42.5 h -3 -3 v -1.496 -1.496 l 2.708,-0.046 2.708,-0.045 0.052,-0.709 0.051,-0.708 h -2.76 -2.759 v -1.329 -1.33 l 2.875,-0.045 2.875,-0.046 V 34.5 33.75 l -3.629,-0.045 c -2.83,-0.035 -3.647,0.002 -3.711,0.169 m 9.297,-0.015 c -0.156,0.156 -0.207,1.433 -0.207,5.174 V 44 h 0.833 0.833 V 40.295 36.59 l 1.347,2.055 c 0.74,1.131 1.677,2.506 2.083,3.057 0.405,0.551 0.737,1.106 0.737,1.233 0,0.127 0.063,0.232 0.14,0.232 0.077,0 0.225,0.187 0.33,0.416 0.169,0.372 0.29,0.417 1.11,0.417 H 322 v -5.08 -5.08 l -0.4,-0.101 c -0.22,-0.055 -0.576,-0.075 -0.791,-0.044 l -0.392,0.055 -0.084,3.75 c -0.073,3.307 -0.11,3.701 -0.313,3.333 -0.127,-0.229 -0.877,-1.379 -1.667,-2.557 -0.79,-1.177 -1.781,-2.677 -2.202,-3.333 -0.803,-1.251 -1.688,-1.673 -2.277,-1.084 m 20.959,4.965 V 44 h 0.836 0.836 l -0.044,-5.125 -0.044,-5.125 -0.792,-0.051 -0.792,-0.051 v 5.176 m 3.778,-5.046 c -0.061,0.061 -0.111,2.386 -0.111,5.166 V 44 h 0.747 0.747 l 0.044,-3.708 c 0.03,-2.476 0.098,-3.598 0.202,-3.375 0.087,0.183 0.878,1.383 1.759,2.666 0.881,1.284 1.89,2.802 2.242,3.375 l 0.64,1.042 h 0.812 0.812 l -0.044,-5.125 -0.044,-5.125 -0.705,-0.051 -0.706,-0.051 -0.044,3.709 -0.045,3.71 -1.708,-2.575 c -1.859,-2.802 -2.74,-4.081 -3.125,-4.534 -0.243,-0.286 -1.245,-0.408 -1.473,-0.18 m 10,0 c -0.061,0.061 -0.111,2.386 -0.111,5.166 V 44 h 3.833 3.834 V 43.25 42.5 h -3 -3 V 41 39.5 h 2.75 2.75 V 38.75 38 h -2.75 -2.75 v -1.329 -1.33 l 2.875,-0.045 2.875,-0.046 0.05,-0.792 0.051,-0.791 h -3.648 c -2.006,0 -3.698,0.05 -3.759,0.111 m 9.333,0 c -0.061,0.061 -0.111,2.386 -0.111,5.166 V 44 h 3.834 3.833 V 43.25 42.5 h -3.083 -3.084 V 41 39.5 h 2.75 2.75 V 38.75 38 h -2.75 -2.75 v -1.333 -1.334 h 3 3 v -0.732 c 0,-0.514 -0.078,-0.762 -0.263,-0.833 -0.36,-0.138 -6.987,-0.129 -7.126,0.01 m 9.223,5.055 V 44 h 0.75 0.75 v -2.151 -2.15 l 0.791,-0.058 c 0.436,-0.032 0.971,-0.032 1.19,-10e-4 0.48,0.067 1.88,1.486 2.305,2.335 0.167,0.334 0.485,0.927 0.706,1.317 L 374.061,44 h 1.053 c 1.224,0 1.213,0.031 0.416,-1.191 -1.277,-1.96 -1.91,-2.822 -2.297,-3.126 l -0.399,-0.314 0.428,-0.107 c 2.299,-0.577 2.816,-3.526 0.873,-4.977 -0.531,-0.397 -2.18,-0.601 -4.927,-0.611 l -2.041,-0.007 v 5.166 m 10.375,-5.056 c -0.161,0.065 -0.209,1.256 -0.209,5.163 v 5.078 l 0.792,-0.051 0.792,-0.05 0.044,-4.989 c 0.034,-3.88 -0.003,-5.018 -0.167,-5.122 -0.23,-0.147 -0.922,-0.162 -1.252,-0.029 M 381,38.833 V 44 h 0.75 0.75 v -3.596 -3.596 l 0.589,0.771 c 0.997,1.307 2.078,2.894 2.078,3.053 0,0.083 0.133,0.304 0.297,0.493 0.163,0.188 0.669,0.912 1.125,1.608 L 387.417,44 h 0.791 0.792 v -5.167 -5.166 h -0.747 -0.747 l -0.044,3.705 -0.045,3.704 -0.545,-0.849 c -0.299,-0.467 -0.726,-1.06 -0.949,-1.319 -0.222,-0.259 -0.605,-0.84 -0.85,-1.291 -0.404,-0.742 -1.895,-2.927 -2.497,-3.659 -0.155,-0.189 -0.474,-0.291 -0.908,-0.291 H 381 v 5.166 M 275.703,35.341 c 1.126,0.312 1.476,1.405 0.728,2.275 -0.395,0.459 -0.437,0.468 -2.5,0.523 l -2.098,0.055 V 36.68 35.167 l 1.625,10e-4 c 0.894,0 1.904,0.078 2.245,0.173 m 96.705,-0.038 c 1.142,0.202 1.513,1.363 0.756,2.367 -0.297,0.395 -0.401,0.416 -2.404,0.469 l -2.093,0.055 V 36.68 35.167 l 1.541,0.009 c 0.848,0.006 1.838,0.062 2.2,0.127 M 237.8,35.566 c 0.958,0.496 1.367,1.482 1.367,3.302 0,2.828 -0.837,3.629 -3.792,3.631 L 234,42.5 v -3.583 -3.584 h 1.675 c 1.108,0 1.827,0.079 2.125,0.233 m 51.319,3.809 c 0.078,0.262 -0.059,0.292 -1.332,0.292 h -1.419 l 0.123,-0.542 c 0.068,-0.298 0.373,-1.197 0.677,-1.998 l 0.554,-1.455 0.655,1.705 c 0.36,0.939 0.694,1.838 0.742,1.998 m -87.424,-2.25 -0.028,0.708 h 0.75 c 0.412,0 0.75,-0.058 0.75,-0.129 0,-0.071 -0.295,-0.101 -0.656,-0.067 -0.651,0.062 -0.656,0.058 -0.722,-0.579 l -0.066,-0.641 -0.028,0.708 m 0,2.371 c 0.027,0.726 0.03,0.731 0.093,0.129 0.063,-0.605 0.086,-0.625 0.722,-0.625 0.361,0 0.656,-0.056 0.656,-0.125 0,-0.069 -0.338,-0.127 -0.75,-0.129 l -0.749,-0.005 0.028,0.755 m -0.015,2.619 c -0.007,0.384 0.046,0.735 0.119,0.78 0.072,0.045 0.104,-0.194 0.071,-0.532 -0.091,-0.922 -0.175,-1.032 -0.19,-0.248"
       stroke="none"
       fill="#bcbcbc"
       fill-rule="evenodd"
       style="display:inline;fill:#444444;fill-opacity:1" />
  </g>
</svg>
