<svg xmlns="http://www.w3.org/2000/svg" xmlns:xlink="http://www.w3.org/1999/xlink" id="svg" version="1.1" width="400" height="44.514601420678765" viewBox="0, 0, 400,44.514601420678765"><g id="svgg"><path id="path0" d="M57.667 23.167 L 57.667 44.167 61.583 44.167 L 65.500 44.167 65.500 31.001 L 65.500 17.836 67.604 19.460 C 68.762 20.353,70.272 21.533,70.961 22.083 C 71.649 22.633,72.647 23.383,73.179 23.750 C 73.710 24.117,74.500 24.736,74.934 25.127 C 75.367 25.518,76.124 26.104,76.615 26.430 C 77.106 26.756,77.704 27.205,77.945 27.428 C 78.185 27.651,78.493 27.833,78.629 27.833 C 78.899 27.833,83.039 24.752,83.668 24.082 C 83.882 23.854,84.145 23.667,84.252 23.667 C 84.358 23.667,85.151 23.081,86.014 22.366 C 86.877 21.650,87.852 20.902,88.179 20.703 C 88.507 20.505,88.960 20.171,89.186 19.963 C 89.760 19.432,91.808 17.833,91.913 17.833 C 91.961 17.833,92.000 23.758,92.000 31.000 L 92.000 44.167 95.833 44.167 L 99.667 44.167 99.667 23.167 C 99.667 7.800,99.617 2.167,99.480 2.167 C 99.378 2.167,99.047 2.373,98.744 2.625 C 98.442 2.877,97.835 3.346,97.397 3.667 C 96.959 3.987,96.147 4.644,95.593 5.125 C 95.039 5.606,94.523 6.000,94.447 6.000 C 94.371 6.000,93.859 6.356,93.311 6.792 C 92.762 7.227,91.849 7.936,91.282 8.367 C 90.714 8.798,89.987 9.366,89.667 9.629 C 89.346 9.893,87.958 10.956,86.583 11.991 C 85.208 13.027,83.971 14.000,83.833 14.152 C 83.696 14.305,83.171 14.703,82.667 15.038 C 82.162 15.373,81.337 16.000,80.833 16.431 C 78.859 18.121,78.330 18.250,77.493 17.241 C 77.269 16.971,72.210 13.053,70.484 11.814 C 70.023 11.482,69.069 10.748,68.364 10.181 C 67.660 9.615,66.746 8.895,66.333 8.580 C 65.921 8.266,65.007 7.557,64.302 7.004 C 63.597 6.452,62.940 6.000,62.843 6.000 C 62.746 6.000,62.667 5.941,62.667 5.869 C 62.667 5.797,62.310 5.467,61.875 5.136 C 58.748 2.758,57.939 2.167,57.811 2.167 C 57.730 2.167,57.667 11.403,57.667 23.167 " stroke="none" fill="#F2E9E1" fill-rule="evenodd"/><path id="path1" d="M6.833 23.250 L 6.833 44.167 18.395 44.167 C 32.433 44.167,32.560 44.152,37.039 42.006 C 45.536 37.936,50.396 27.850,48.246 18.750 C 48.095 18.108,47.903 17.256,47.820 16.856 C 47.191 13.813,42.545 7.399,40.027 6.097 C 39.732 5.944,39.045 5.532,38.502 5.181 C 37.236 4.363,34.560 3.188,33.540 3.002 C 29.779 2.319,30.133 2.335,18.292 2.334 L 6.833 2.333 6.833 23.250 M31.083 10.382 C 37.912 12.338,42.314 19.496,40.690 26.004 C 40.136 28.229,37.691 32.658,37.013 32.668 C 36.960 32.669,36.490 33.035,35.968 33.482 C 32.945 36.069,31.651 36.345,22.042 36.451 L 14.500 36.534 14.500 23.259 L 14.500 9.985 22.292 10.040 C 29.047 10.088,30.216 10.134,31.083 10.382 M218.407 23.500 C 218.407 26.296,218.430 27.440,218.458 26.042 C 218.486 24.644,218.486 22.356,218.458 20.958 C 218.430 19.560,218.407 20.704,218.407 23.500 M312.209 43.250 C 312.211 43.617,312.245 43.747,312.285 43.540 C 312.324 43.332,312.323 43.032,312.281 42.873 C 312.239 42.714,312.207 42.883,312.209 43.250 " stroke="none" fill="#bfbfbf" fill-rule="evenodd"/><path id="path2" d="M228.574 7.833 C 228.574 10.629,228.597 11.773,228.625 10.375 C 228.653 8.977,228.653 6.690,228.625 5.292 C 228.597 3.894,228.574 5.037,228.574 7.833 M273.574 7.833 C 273.574 10.629,273.597 11.773,273.625 10.375 C 273.653 8.977,273.653 6.690,273.625 5.292 C 273.597 3.894,273.574 5.037,273.574 7.833 M146.653 4.087 C 145.474 4.373,144.001 5.022,143.278 5.573 C 142.970 5.808,142.642 6.000,142.549 6.000 C 142.311 6.000,140.333 8.017,140.333 8.259 C 140.333 8.369,140.215 8.558,140.070 8.678 C 139.650 9.027,138.866 10.710,138.496 12.059 C 138.166 13.261,138.157 13.658,138.203 24.442 L 138.250 35.583 138.685 36.702 C 139.873 39.754,141.816 41.900,144.538 43.167 C 146.764 44.203,146.086 44.167,163.122 44.167 L 178.673 44.167 178.628 40.458 L 178.583 36.750 163.250 36.667 L 147.917 36.583 147.181 36.083 C 145.832 35.166,145.757 34.862,145.700 30.042 L 145.651 25.833 158.575 25.833 L 171.500 25.833 171.500 22.083 L 171.500 18.333 158.583 18.333 L 145.667 18.333 145.668 16.208 C 145.671 13.247,146.130 12.255,147.795 11.609 C 148.439 11.360,149.952 11.333,163.587 11.333 L 178.667 11.333 178.667 7.583 L 178.667 3.833 163.125 3.847 C 150.651 3.858,147.400 3.906,146.653 4.087 M201.750 8.041 L 201.750 8.832 202.458 8.833 L 203.167 8.833 203.167 8.100 L 203.167 7.367 202.458 7.308 L 201.749 7.250 201.750 8.041 M235.705 7.667 C 235.705 7.987,235.740 8.119,235.782 7.958 C 235.823 7.798,235.823 7.535,235.782 7.375 C 235.740 7.215,235.705 7.346,235.705 7.667 M231.458 8.457 C 232.215 8.488,233.452 8.488,234.208 8.457 C 234.965 8.426,234.346 8.401,232.833 8.401 C 231.321 8.401,230.702 8.426,231.458 8.457 M288.125 8.457 C 288.881 8.488,290.119 8.488,290.875 8.457 C 291.631 8.426,291.012 8.401,289.500 8.401 C 287.987 8.401,287.369 8.426,288.125 8.457 M201.808 10.659 L 201.866 11.500 202.525 11.500 L 203.185 11.500 203.134 10.708 L 203.083 9.917 202.417 9.867 L 201.750 9.818 201.808 10.659 M201.808 13.259 L 201.868 14.018 202.476 13.967 C 203.062 13.918,203.085 13.892,203.135 13.208 L 203.186 12.500 202.467 12.500 L 201.748 12.500 201.808 13.259 M202.044 15.120 C 202.297 15.158,202.672 15.157,202.877 15.117 C 203.082 15.078,202.875 15.046,202.417 15.048 C 201.958 15.049,201.791 15.081,202.044 15.120 M201.833 16.083 L 201.833 16.833 202.500 16.833 L 203.167 16.833 203.167 16.083 L 203.167 15.333 202.500 15.333 L 201.833 15.333 201.833 16.083 M201.903 18.059 C 201.642 18.740,201.897 19.250,202.500 19.250 C 203.379 19.250,203.417 17.949,202.541 17.864 C 202.178 17.829,201.966 17.894,201.903 18.059 M219.128 18.287 C 219.428 18.325,219.878 18.324,220.128 18.286 C 220.378 18.248,220.133 18.217,219.583 18.218 C 219.033 18.219,218.828 18.250,219.128 18.287 M226.877 18.286 C 227.131 18.325,227.506 18.324,227.711 18.284 C 227.916 18.244,227.708 18.213,227.250 18.214 C 226.792 18.216,226.624 18.248,226.877 18.286 M233.292 18.284 C 233.498 18.324,233.835 18.324,234.042 18.284 C 234.248 18.245,234.079 18.212,233.667 18.212 C 233.254 18.212,233.085 18.245,233.292 18.284 M239.875 18.282 C 240.035 18.323,240.298 18.323,240.458 18.282 C 240.619 18.240,240.487 18.205,240.167 18.205 C 239.846 18.205,239.715 18.240,239.875 18.282 M246.375 18.282 C 246.535 18.323,246.798 18.323,246.958 18.282 C 247.119 18.240,246.987 18.205,246.667 18.205 C 246.346 18.205,246.215 18.240,246.375 18.282 M249.960 18.285 C 250.168 18.324,250.468 18.323,250.627 18.281 C 250.786 18.239,250.617 18.207,250.250 18.209 C 249.883 18.211,249.753 18.245,249.960 18.285 M256.460 18.285 C 256.668 18.324,256.968 18.323,257.127 18.281 C 257.286 18.239,257.117 18.207,256.750 18.209 C 256.383 18.211,256.253 18.245,256.460 18.285 M261.301 18.291 C 262.245 18.321,263.745 18.321,264.634 18.291 C 265.523 18.261,264.750 18.237,262.917 18.237 C 261.083 18.237,260.356 18.261,261.301 18.291 M270.460 18.285 C 270.668 18.324,270.968 18.323,271.127 18.281 C 271.286 18.239,271.117 18.207,270.750 18.209 C 270.383 18.211,270.253 18.245,270.460 18.285 M287.875 18.291 C 288.952 18.320,290.715 18.320,291.792 18.291 C 292.869 18.262,291.987 18.238,289.833 18.238 C 287.679 18.238,286.798 18.262,287.875 18.291 M295.460 18.285 C 295.668 18.324,295.968 18.323,296.127 18.281 C 296.286 18.239,296.117 18.207,295.750 18.209 C 295.383 18.211,295.253 18.245,295.460 18.285 M301.960 18.285 C 302.168 18.324,302.468 18.323,302.627 18.281 C 302.786 18.239,302.617 18.207,302.250 18.209 C 301.883 18.211,301.753 18.245,301.960 18.285 M306.382 18.290 C 307.004 18.323,307.979 18.322,308.549 18.290 C 309.118 18.257,308.608 18.231,307.417 18.231 C 306.225 18.232,305.759 18.258,306.382 18.290 M315.794 18.285 C 316.001 18.324,316.301 18.323,316.460 18.281 C 316.620 18.239,316.450 18.207,316.083 18.209 C 315.717 18.211,315.586 18.245,315.794 18.285 M319.460 18.285 C 319.668 18.324,319.968 18.323,320.127 18.281 C 320.286 18.239,320.117 18.207,319.750 18.209 C 319.383 18.211,319.253 18.245,319.460 18.285 M325.875 18.282 C 326.035 18.323,326.298 18.323,326.458 18.282 C 326.619 18.240,326.487 18.205,326.167 18.205 C 325.846 18.205,325.715 18.240,325.875 18.282 M346.127 18.285 C 346.334 18.324,346.634 18.323,346.794 18.281 C 346.953 18.239,346.783 18.207,346.417 18.209 C 346.050 18.211,345.920 18.245,346.127 18.285 M352.627 18.285 C 352.834 18.324,353.134 18.323,353.294 18.281 C 353.453 18.239,353.283 18.207,352.917 18.209 C 352.550 18.211,352.420 18.245,352.627 18.285 M359.127 18.285 C 359.334 18.324,359.634 18.323,359.794 18.281 C 359.953 18.239,359.783 18.207,359.417 18.209 C 359.050 18.211,358.920 18.245,359.127 18.285 M363.214 18.290 C 363.745 18.323,364.570 18.323,365.048 18.289 C 365.526 18.256,365.092 18.229,364.083 18.229 C 363.075 18.229,362.684 18.257,363.214 18.290 M325.405 22.167 C 325.405 24.229,325.429 25.073,325.458 24.042 C 325.487 23.010,325.487 21.323,325.458 20.292 C 325.429 19.260,325.405 20.104,325.405 22.167 M201.808 21.208 L 201.750 21.917 202.458 21.858 C 203.161 21.800,203.167 21.794,203.167 21.150 C 203.167 20.083,201.897 20.138,201.808 21.208 M201.804 23.842 C 201.726 24.661,201.731 24.667,202.528 24.667 L 203.167 24.667 203.167 23.917 L 203.167 23.167 202.518 23.167 C 201.880 23.167,201.867 23.179,201.804 23.842 M201.822 25.733 C 201.777 25.779,201.769 26.124,201.805 26.500 C 201.905 27.555,203.083 27.478,203.083 26.417 C 203.083 25.787,202.231 25.325,201.822 25.733 M201.732 28.597 C 201.788 28.742,201.833 29.042,201.833 29.264 C 201.833 29.623,201.906 29.667,202.500 29.667 L 203.167 29.667 203.167 29.000 L 203.167 28.333 202.399 28.333 C 201.767 28.333,201.649 28.380,201.732 28.597 M201.807 31.750 L 201.748 32.500 202.457 32.500 L 203.167 32.500 203.167 31.750 L 203.167 31.000 202.517 31.000 L 201.867 31.000 201.807 31.750 M201.808 34.326 C 201.865 35.159,201.871 35.167,202.430 35.167 C 203.513 35.167,203.500 33.614,202.417 33.534 L 201.750 33.485 201.808 34.326 M201.814 36.241 C 201.773 36.282,201.769 36.624,201.805 37.000 C 201.908 38.078,203.055 37.969,203.135 36.875 L 203.186 36.167 202.537 36.167 C 202.181 36.167,201.855 36.200,201.814 36.241 M340.071 40.250 C 340.071 42.267,340.095 43.069,340.125 42.032 C 340.154 40.996,340.154 39.346,340.124 38.366 C 340.095 37.385,340.071 38.233,340.071 40.250 M202.208 38.782 C 202.369 38.823,202.631 38.823,202.792 38.782 C 202.952 38.740,202.821 38.705,202.500 38.705 C 202.179 38.705,202.048 38.740,202.208 38.782 M328.372 39.333 C 328.372 39.654,328.406 39.785,328.448 39.625 C 328.490 39.465,328.490 39.202,328.448 39.042 C 328.406 38.881,328.372 39.012,328.372 39.333 M201.804 39.673 C 201.749 40.254,201.790 40.358,202.107 40.437 C 202.848 40.623,203.080 40.458,203.135 39.707 L 203.186 39.000 202.527 39.000 C 201.879 39.000,201.867 39.011,201.804 39.673 M201.809 42.218 L 201.750 42.954 202.417 42.935 C 203.418 42.907,203.473 41.616,202.476 41.533 C 201.869 41.482,201.868 41.482,201.809 42.218 " stroke="none" fill="#F2E9E1" fill-rule="evenodd"/><path id="path3" d="M115.833 23.250 L 115.833 44.167 119.667 44.167 L 123.500 44.167 123.500 23.250 L 123.500 2.333 119.667 2.333 L 115.833 2.333 115.833 23.250 M283.407 7.750 C 283.407 10.500,283.430 11.648,283.458 10.302 C 283.486 8.956,283.486 6.706,283.458 5.302 C 283.430 3.898,283.407 5.000,283.407 7.750 " stroke="none" fill="#bfbfbf" fill-rule="evenodd"/><path id="path4" d="M320.000 2.677 C 319.679 2.753,319.219 2.864,318.977 2.923 C 315.997 3.657,315.247 10.064,317.917 11.982 C 320.785 14.043,324.668 13.001,325.611 9.917 C 326.963 5.495,324.036 1.719,320.000 2.677 M218.625 2.757 C 218.556 2.829,218.500 5.126,218.500 7.861 L 218.500 12.833 221.125 12.826 C 225.728 12.813,226.916 11.787,226.908 7.833 C 226.902 5.019,226.113 3.495,224.416 3.018 C 223.603 2.789,218.799 2.573,218.625 2.757 M228.667 7.750 L 228.667 12.833 232.417 12.833 L 236.167 12.833 236.167 12.167 L 236.167 11.500 233.167 11.500 L 230.167 11.500 230.167 9.917 L 230.167 8.333 232.899 8.333 L 235.632 8.333 235.696 7.658 C 235.781 6.772,235.989 6.833,232.889 6.833 L 230.167 6.833 230.167 5.500 L 230.167 4.167 233.083 4.167 L 236.000 4.167 236.000 3.417 L 236.000 2.667 232.333 2.667 L 228.667 2.667 228.667 7.750 M237.833 7.750 L 237.833 12.833 238.583 12.833 L 239.333 12.833 239.333 10.849 L 239.333 8.865 241.632 8.808 C 244.625 8.733,245.419 8.171,245.631 5.978 C 245.877 3.430,244.500 2.671,239.625 2.668 L 237.833 2.667 237.833 7.750 M248.515 3.375 C 248.339 3.765,248.102 4.383,247.988 4.750 C 247.875 5.117,247.348 6.504,246.817 7.833 C 244.624 13.327,244.712 12.868,245.861 12.800 L 246.721 12.750 247.236 11.292 L 247.750 9.834 249.667 9.836 L 251.583 9.838 252.176 11.294 L 252.768 12.750 253.634 12.800 C 254.574 12.855,254.647 12.767,254.268 12.033 C 254.140 11.786,253.698 10.683,253.286 9.583 C 252.874 8.483,252.349 7.171,252.120 6.667 C 251.891 6.162,251.459 5.150,251.160 4.417 C 250.461 2.703,250.428 2.667,249.564 2.667 C 248.868 2.667,248.821 2.698,248.515 3.375 M255.458 2.757 C 255.390 2.830,255.333 5.126,255.333 7.861 L 255.333 12.833 256.083 12.833 L 256.833 12.833 256.833 10.643 L 256.833 8.452 258.110 8.548 C 259.634 8.664,259.728 8.739,261.346 11.127 L 262.444 12.750 263.410 12.801 C 264.201 12.842,264.359 12.807,264.283 12.608 C 264.096 12.121,262.276 9.403,261.794 8.892 L 261.300 8.366 261.692 8.248 C 263.948 7.565,264.146 3.642,261.959 2.980 C 261.276 2.773,255.627 2.580,255.458 2.757 M264.447 2.775 C 264.385 2.838,264.333 3.176,264.333 3.528 L 264.333 4.167 266.000 4.167 L 267.667 4.167 267.667 8.500 L 267.667 12.833 268.417 12.833 L 269.167 12.833 269.167 8.500 L 269.167 4.167 270.843 4.167 L 272.519 4.167 272.468 3.458 L 272.417 2.750 268.489 2.705 C 266.329 2.681,264.510 2.712,264.447 2.775 M273.667 7.750 L 273.667 12.833 274.333 12.833 L 275.000 12.833 275.009 8.958 L 275.017 5.083 276.023 7.917 C 276.576 9.475,277.191 11.218,277.389 11.790 L 277.750 12.829 278.456 12.831 C 279.270 12.834,279.288 12.805,280.206 10.000 C 280.492 9.129,280.956 7.752,281.237 6.939 L 281.750 5.462 281.795 9.148 L 281.840 12.833 282.628 12.833 L 283.417 12.834 283.333 7.792 L 283.250 2.750 282.268 2.750 L 281.287 2.750 280.997 3.583 C 280.837 4.042,280.593 4.792,280.454 5.250 C 280.315 5.708,279.964 6.721,279.673 7.500 C 279.382 8.279,279.030 9.254,278.889 9.667 C 278.509 10.783,278.452 10.763,278.019 9.366 C 275.917 2.592,275.954 2.667,274.646 2.667 L 273.667 2.667 273.667 7.750 M285.281 2.775 C 285.218 2.837,285.167 5.126,285.167 7.861 L 285.167 12.833 289.000 12.833 L 292.833 12.833 292.833 12.167 L 292.833 11.500 289.833 11.500 L 286.833 11.500 286.833 9.917 L 286.833 8.333 289.593 8.333 L 292.352 8.333 292.301 7.625 L 292.250 6.917 289.542 6.871 L 286.833 6.825 286.833 5.496 L 286.833 4.167 289.760 4.167 L 292.686 4.167 292.635 3.458 L 292.583 2.750 288.989 2.705 C 287.013 2.681,285.344 2.712,285.281 2.775 M294.500 7.750 L 294.500 12.833 295.247 12.833 L 295.993 12.833 296.038 9.254 L 296.083 5.676 297.250 7.348 C 297.892 8.268,298.488 9.148,298.574 9.302 C 298.661 9.457,299.216 10.315,299.806 11.208 L 300.880 12.833 301.690 12.833 L 302.500 12.833 302.500 7.740 L 302.500 2.648 301.792 2.699 L 301.083 2.750 301.000 6.333 L 300.917 9.917 300.250 8.982 C 299.883 8.469,299.096 7.280,298.500 6.340 C 296.396 3.024,296.079 2.667,295.236 2.667 L 294.500 2.667 294.500 7.750 M303.833 3.414 L 303.833 4.167 305.417 4.167 L 307.000 4.167 307.000 8.500 L 307.000 12.833 307.833 12.833 L 308.667 12.833 308.667 8.506 L 308.667 4.179 310.292 4.131 L 311.917 4.083 311.917 3.417 L 311.917 2.750 307.875 2.705 L 303.833 2.661 303.833 3.414 M327.500 7.750 L 327.500 12.833 328.250 12.833 L 329.000 12.833 329.000 10.671 L 329.000 8.509 331.375 8.463 L 333.750 8.417 333.750 7.667 L 333.750 6.917 331.375 6.870 L 329.000 6.824 329.000 5.495 L 329.000 4.167 331.667 4.167 L 334.333 4.167 334.333 3.417 L 334.333 2.667 330.917 2.667 L 327.500 2.667 327.500 7.750 M322.810 4.455 C 324.365 5.609,324.816 8.489,323.700 10.141 C 321.592 13.262,317.558 11.364,317.876 7.400 C 318.101 4.601,320.820 2.978,322.810 4.455 M260.583 4.162 C 261.790 4.441,262.335 5.501,261.678 6.289 C 261.197 6.866,260.627 7.000,258.656 7.000 L 256.833 7.000 256.833 5.500 L 256.833 4.000 258.375 4.004 C 259.223 4.006,260.217 4.077,260.583 4.162 M223.744 4.404 C 225.590 5.175,225.953 9.125,224.331 10.784 C 223.751 11.377,223.263 11.500,221.479 11.500 L 220.167 11.500 220.167 7.833 L 220.167 4.167 221.672 4.167 C 222.596 4.167,223.396 4.258,223.744 4.404 M243.313 4.438 C 245.145 5.721,243.937 7.333,241.144 7.333 L 239.333 7.333 239.333 5.750 L 239.333 4.167 241.130 4.167 C 242.519 4.167,243.013 4.228,243.313 4.438 M250.295 6.208 C 250.589 6.965,250.878 7.827,250.936 8.125 L 251.042 8.667 249.604 8.667 C 248.814 8.667,248.167 8.631,248.167 8.588 C 248.167 8.544,248.401 7.925,248.687 7.213 C 248.973 6.500,249.276 5.673,249.361 5.375 C 249.587 4.583,249.702 4.686,250.295 6.208 M202.125 7.284 C 202.331 7.324,202.669 7.324,202.875 7.284 C 203.081 7.245,202.912 7.212,202.500 7.212 C 202.088 7.212,201.919 7.245,202.125 7.284 M201.709 8.083 C 201.711 8.450,201.745 8.580,201.785 8.373 C 201.824 8.166,201.823 7.866,201.781 7.706 C 201.739 7.547,201.707 7.717,201.709 8.083 M201.714 10.750 C 201.716 11.208,201.748 11.376,201.786 11.123 C 201.825 10.869,201.824 10.494,201.784 10.289 C 201.744 10.084,201.713 10.292,201.714 10.750 M201.696 13.375 L 201.667 14.167 202.417 14.167 C 202.829 14.167,203.167 14.108,203.167 14.037 C 203.167 13.966,202.871 13.936,202.510 13.970 L 201.854 14.033 201.790 13.308 L 201.725 12.583 201.696 13.375 M201.696 15.958 L 201.725 16.750 201.788 16.051 C 201.851 15.363,201.863 15.351,202.551 15.288 L 203.250 15.225 202.458 15.196 L 201.667 15.167 201.696 15.958 M201.667 18.583 C 201.667 18.996,201.723 19.333,201.792 19.333 C 201.860 19.333,201.917 18.996,201.917 18.583 C 201.917 18.171,201.860 17.833,201.792 17.833 C 201.723 17.833,201.667 18.171,201.667 18.583 M280.083 18.112 C 276.631 18.827,274.993 22.663,276.644 26.168 C 278.274 29.624,283.097 29.643,284.782 26.199 C 285.260 25.223,285.220 25.113,284.293 24.863 C 283.604 24.677,283.626 24.661,283.342 25.544 C 282.662 27.652,279.204 27.700,278.141 25.616 C 277.704 24.759,277.560 23.139,277.824 22.039 C 278.499 19.224,282.404 18.743,283.373 21.355 C 283.483 21.650,285.000 21.442,285.000 21.132 C 285.000 19.534,282.029 17.710,280.083 18.112 M332.557 18.185 C 327.966 19.015,327.012 25.834,331.167 28.126 C 332.837 29.047,335.703 28.829,337.292 27.659 L 338.000 27.138 338.000 25.152 L 338.000 23.167 335.833 23.167 L 333.667 23.167 333.667 23.917 L 333.667 24.667 335.092 24.667 L 336.517 24.667 336.467 25.526 C 336.381 26.989,333.549 27.735,331.833 26.747 C 330.185 25.798,329.792 22.482,331.120 20.723 C 332.301 19.158,335.396 19.351,336.222 21.042 C 336.549 21.712,336.738 21.779,337.419 21.469 C 337.921 21.240,337.891 20.874,337.279 19.750 C 336.621 18.540,334.495 17.835,332.557 18.185 M219.542 18.300 L 218.500 18.349 218.500 23.425 L 218.500 28.500 219.247 28.500 L 219.994 28.500 220.039 24.708 L 220.083 20.917 220.557 22.417 C 220.818 23.242,221.293 24.667,221.613 25.583 C 221.933 26.500,222.273 27.535,222.370 27.883 C 222.542 28.508,222.555 28.516,223.291 28.467 L 224.037 28.417 224.449 27.333 C 224.963 25.985,226.287 22.311,226.581 21.417 C 226.776 20.824,226.802 21.181,226.817 24.625 L 226.833 28.500 227.586 28.500 L 228.338 28.500 228.294 23.458 L 228.250 18.417 227.218 18.367 L 226.187 18.318 226.029 18.867 C 225.943 19.169,225.452 20.559,224.939 21.955 C 224.426 23.351,223.967 24.716,223.919 24.988 C 223.631 26.622,223.532 26.549,222.672 24.077 C 221.327 20.211,220.632 18.250,220.607 18.250 C 220.594 18.250,220.115 18.272,219.542 18.300 M245.967 18.249 C 245.948 18.249,245.892 19.896,245.842 21.907 L 245.750 25.565 244.764 23.991 C 244.222 23.125,243.424 21.929,242.990 21.333 C 242.557 20.737,242.052 19.979,241.867 19.648 C 241.122 18.311,241.150 18.333,240.210 18.333 L 239.333 18.333 239.333 23.417 L 239.333 28.500 240.163 28.500 L 240.993 28.500 241.038 24.875 L 241.083 21.250 241.581 22.083 C 242.295 23.278,242.310 23.300,243.487 25.020 C 244.075 25.880,244.619 26.608,244.695 26.639 C 244.771 26.669,244.833 26.789,244.833 26.906 C 244.833 27.631,245.833 28.500,246.668 28.500 L 247.500 28.500 247.500 23.433 L 247.500 18.367 246.750 18.307 C 246.338 18.274,245.985 18.248,245.967 18.249 M249.388 18.640 C 249.232 19.259,249.453 25.684,249.652 26.344 C 250.534 29.260,255.667 29.638,257.021 26.886 C 257.398 26.122,257.419 25.896,257.469 22.167 L 257.521 18.250 256.802 18.250 L 256.083 18.250 255.998 21.917 C 255.889 26.599,255.620 27.167,253.509 27.167 C 251.304 27.167,251.095 26.743,251.031 22.141 L 250.978 18.365 250.232 18.306 C 249.564 18.253,249.476 18.288,249.388 18.640 M289.699 18.292 L 285.648 18.339 285.699 19.045 L 285.750 19.750 287.375 19.798 L 289.000 19.845 289.000 24.173 L 289.000 28.500 289.833 28.500 L 290.667 28.500 290.667 24.167 L 290.667 19.833 292.250 19.833 L 293.833 19.833 293.833 19.000 C 293.833 18.542,293.815 18.184,293.792 18.205 C 293.769 18.226,291.927 18.265,289.699 18.292 M295.044 22.164 C 295.148 27.981,295.694 28.797,299.375 28.643 C 302.413 28.516,303.051 27.469,303.142 22.470 C 303.220 18.149,303.237 18.229,302.257 18.307 L 301.500 18.367 301.500 21.847 C 301.500 26.563,301.324 26.976,299.259 27.108 C 296.888 27.259,296.608 26.732,296.528 21.974 L 296.468 18.364 295.721 18.305 L 294.974 18.246 295.044 22.164 M315.333 23.375 L 315.333 28.500 316.083 28.500 L 316.833 28.500 316.833 23.375 L 316.833 18.250 316.083 18.250 L 315.333 18.250 315.333 23.375 M319.708 18.289 L 319.000 18.352 319.000 23.426 L 319.000 28.500 319.750 28.500 L 320.500 28.500 320.500 24.887 L 320.500 21.274 321.241 22.345 C 321.648 22.935,322.098 23.563,322.241 23.742 C 322.383 23.921,322.500 24.125,322.500 24.195 C 322.500 24.331,323.793 26.285,324.098 26.610 C 324.197 26.716,324.524 27.185,324.824 27.651 C 325.357 28.482,325.385 28.500,326.184 28.500 L 327.000 28.500 327.000 23.433 L 327.000 18.367 326.250 18.307 L 325.500 18.248 325.499 22.082 C 325.498 25.339,325.465 25.854,325.280 25.500 C 325.008 24.979,324.456 24.111,324.327 24.000 C 324.222 23.911,322.791 21.780,321.331 19.542 C 320.838 18.785,320.430 18.180,320.425 18.196 C 320.421 18.212,320.098 18.254,319.708 18.289 M352.167 23.375 L 352.167 28.500 352.917 28.500 L 353.667 28.500 353.667 24.798 L 353.667 21.096 354.529 22.423 C 355.003 23.153,355.800 24.350,356.299 25.083 C 356.798 25.817,357.514 26.889,357.889 27.466 L 358.571 28.515 359.410 28.466 L 360.250 28.417 360.294 23.502 C 360.346 17.793,360.417 18.228,359.437 18.306 L 358.667 18.367 358.667 22.055 L 358.667 25.744 358.292 25.160 C 358.085 24.838,357.842 24.456,357.750 24.310 C 357.329 23.642,355.433 20.908,355.339 20.833 C 355.281 20.787,355.019 20.375,354.757 19.917 C 353.911 18.439,353.747 18.292,352.917 18.270 L 352.166 18.250 352.167 23.375 M364.042 18.297 L 362.167 18.344 362.167 23.422 L 362.167 28.500 364.792 28.498 C 369.218 28.496,370.548 27.326,370.568 23.417 C 370.590 19.331,369.110 18.170,364.042 18.297 M232.413 19.458 C 232.165 20.077,231.669 21.333,231.312 22.250 C 230.955 23.167,230.558 24.142,230.430 24.417 C 230.301 24.692,230.067 25.367,229.910 25.917 C 229.753 26.467,229.531 27.104,229.417 27.333 C 228.860 28.449,228.888 28.523,229.842 28.468 L 230.713 28.417 231.228 26.958 L 231.743 25.500 233.788 25.500 C 235.666 25.500,235.833 25.525,235.833 25.808 C 235.833 25.977,236.045 26.634,236.304 27.266 L 236.775 28.417 237.721 28.467 C 238.881 28.528,238.931 28.901,237.250 24.990 C 236.471 23.178,235.834 21.633,235.835 21.556 C 235.836 21.479,235.554 20.723,235.210 19.875 L 234.583 18.334 233.725 18.333 L 232.866 18.333 232.413 19.458 M259.500 23.417 L 259.500 28.500 260.333 28.500 L 261.167 28.500 261.167 26.250 L 261.167 24.000 263.417 24.000 L 265.667 24.000 265.667 23.250 L 265.667 22.500 263.417 22.500 L 261.167 22.500 261.167 21.167 L 261.167 19.833 263.833 19.833 L 266.500 19.833 266.500 19.083 L 266.500 18.333 263.000 18.333 L 259.500 18.333 259.500 23.417 M269.725 18.616 C 269.668 18.781,269.444 19.373,269.227 19.930 C 269.011 20.487,268.834 21.012,268.835 21.096 C 268.837 21.290,266.501 27.180,266.148 27.873 C 265.877 28.403,265.993 28.500,266.894 28.500 L 267.789 28.500 268.228 27.292 C 268.470 26.627,268.668 25.952,268.667 25.792 C 268.667 25.530,268.872 25.500,270.654 25.500 L 272.642 25.500 273.049 26.388 C 273.272 26.876,273.546 27.551,273.657 27.888 C 273.857 28.494,273.868 28.500,274.774 28.500 C 275.780 28.500,275.806 28.434,275.229 27.300 C 275.103 27.052,274.744 26.152,274.432 25.300 C 274.119 24.447,273.343 22.550,272.706 21.083 L 271.550 18.417 270.690 18.366 C 269.983 18.325,269.811 18.369,269.725 18.616 M305.000 23.407 L 305.000 28.500 305.833 28.500 L 306.667 28.500 306.667 26.333 L 306.667 24.167 307.834 24.167 C 309.113 24.167,309.990 24.769,310.499 25.999 C 310.614 26.274,310.773 26.500,310.854 26.500 C 310.934 26.500,311.000 26.576,311.000 26.669 C 311.000 26.761,311.244 27.210,311.542 27.666 L 312.083 28.494 313.042 28.497 C 313.569 28.499,314.000 28.458,314.000 28.407 C 314.000 28.018,312.039 25.014,311.378 24.391 L 310.818 23.863 311.361 23.744 C 313.522 23.269,314.018 20.153,312.144 18.817 C 311.605 18.432,311.459 18.415,308.292 18.365 L 305.000 18.314 305.000 23.407 M344.936 19.959 C 343.952 22.427,343.361 24.000,343.418 24.000 C 343.446 24.000,343.069 24.979,342.579 26.176 C 341.614 28.538,341.616 28.565,342.764 28.469 C 343.394 28.417,343.399 28.411,343.962 26.958 L 344.527 25.500 346.487 25.500 L 348.447 25.500 348.877 26.625 C 349.113 27.244,349.355 27.919,349.415 28.125 C 349.509 28.455,349.632 28.500,350.428 28.500 C 351.495 28.500,351.508 28.457,350.865 27.083 C 350.607 26.533,350.221 25.633,350.006 25.083 C 349.791 24.533,349.551 24.012,349.474 23.925 C 349.397 23.838,349.333 23.646,349.333 23.498 C 349.333 23.350,349.183 22.919,349.000 22.539 C 348.817 22.160,348.667 21.738,348.667 21.601 C 348.667 21.465,348.604 21.314,348.526 21.266 C 348.449 21.219,348.138 20.539,347.836 19.756 L 347.286 18.333 346.434 18.334 L 345.583 18.334 344.936 19.959 M310.250 19.829 C 311.529 20.125,311.906 21.287,311.013 22.179 C 310.530 22.662,310.507 22.667,308.596 22.667 L 306.667 22.667 306.667 21.167 L 306.667 19.667 308.125 19.671 C 308.927 19.673,309.883 19.744,310.250 19.829 M367.238 20.025 C 369.148 20.742,369.659 24.463,368.096 26.271 L 367.562 26.889 365.698 26.966 L 363.833 27.043 363.833 23.438 L 363.833 19.833 365.280 19.833 C 366.075 19.833,366.957 19.920,367.238 20.025 M271.352 21.763 C 271.638 22.581,271.933 23.456,272.008 23.708 L 272.143 24.167 270.719 24.167 C 269.438 24.167,269.304 24.137,269.388 23.875 C 269.631 23.114,270.755 20.202,270.791 20.237 C 270.814 20.259,271.066 20.946,271.352 21.763 M347.556 23.283 C 347.996 24.131,347.950 24.167,346.417 24.167 C 345.637 24.167,345.000 24.148,345.001 24.125 C 345.001 24.102,345.214 23.558,345.473 22.917 C 345.733 22.275,346.048 21.396,346.174 20.963 L 346.403 20.176 346.841 21.463 C 347.082 22.171,347.404 22.990,347.556 23.283 M234.382 22.083 C 234.697 22.908,235.011 23.715,235.079 23.875 C 235.191 24.140,235.070 24.167,233.768 24.167 C 232.979 24.167,232.333 24.131,232.333 24.087 C 232.333 24.043,232.437 23.724,232.564 23.378 C 232.690 23.033,232.969 22.208,233.184 21.545 C 233.639 20.136,233.636 20.134,234.382 22.083 M201.734 21.207 L 201.750 21.917 202.500 21.935 L 203.250 21.953 202.551 21.884 C 201.873 21.817,201.850 21.795,201.784 21.156 L 201.717 20.498 201.734 21.207 M201.695 23.708 L 201.723 24.417 201.788 23.801 C 201.850 23.211,201.882 23.182,202.551 23.122 L 203.250 23.058 202.458 23.029 L 201.667 23.000 201.695 23.708 M201.709 26.583 C 201.711 26.950,201.745 27.080,201.785 26.873 C 201.824 26.666,201.823 26.366,201.781 26.206 C 201.739 26.047,201.707 26.217,201.709 26.583 M201.693 29.208 L 201.667 29.833 202.458 29.804 L 203.250 29.775 202.552 29.712 C 201.907 29.653,201.848 29.607,201.787 29.116 C 201.722 28.603,201.719 28.606,201.693 29.208 M201.696 31.625 L 201.725 32.417 201.788 31.717 C 201.851 31.030,201.863 31.017,202.551 30.955 L 203.250 30.892 202.458 30.862 L 201.667 30.833 201.696 31.625 M254.984 33.661 C 253.509 33.935,252.651 34.849,252.533 36.271 C 252.387 38.036,253.181 38.735,256.221 39.514 C 258.880 40.195,259.464 41.495,257.553 42.479 C 256.206 43.173,253.667 42.127,253.667 40.880 C 253.667 40.534,253.590 40.500,252.815 40.500 L 251.963 40.500 252.077 41.125 C 252.428 43.043,253.663 44.011,255.907 44.129 C 258.852 44.283,260.359 43.057,260.132 40.694 C 260.059 39.939,259.263 38.515,259.039 38.739 C 258.994 38.783,258.761 38.719,258.521 38.595 C 258.280 38.471,257.446 38.201,256.667 37.995 C 254.466 37.411,254.007 37.124,254.003 36.329 C 253.998 35.660,254.604 35.272,255.770 35.196 C 257.299 35.098,258.333 35.728,258.333 36.758 C 258.333 37.024,258.531 37.052,259.313 36.896 C 259.898 36.779,259.973 36.457,259.639 35.483 C 259.154 34.067,257.108 33.266,254.984 33.661 M327.391 33.674 C 324.334 34.278,322.625 37.845,323.843 41.077 C 325.018 44.196,328.905 45.158,332.185 43.140 L 333.000 42.638 333.000 40.652 L 333.000 38.667 330.768 38.667 L 328.535 38.667 328.471 39.342 C 328.388 40.205,328.319 40.167,329.944 40.167 L 331.333 40.167 331.333 40.985 C 331.333 43.320,326.039 43.068,325.376 40.701 C 325.132 39.829,325.241 37.289,325.548 36.717 C 326.659 34.641,330.500 34.564,331.173 36.603 C 331.383 37.237,331.357 37.228,332.209 36.991 C 332.781 36.832,332.826 36.778,332.726 36.367 C 332.232 34.340,329.921 33.173,327.391 33.674 M394.634 33.663 C 391.631 34.201,390.071 37.152,390.937 40.656 C 391.710 43.784,395.538 45.167,398.768 43.485 L 399.917 42.888 399.963 40.777 L 400.010 38.667 397.838 38.667 L 395.667 38.667 395.667 39.417 L 395.667 40.167 397.083 40.167 L 398.500 40.167 398.500 40.915 C 398.500 42.841,394.889 43.305,393.226 41.592 C 391.549 39.866,392.303 35.925,394.422 35.332 C 396.236 34.824,397.668 35.250,398.202 36.457 C 398.612 37.384,400.099 37.282,399.918 36.339 C 399.552 34.440,397.133 33.215,394.634 33.663 M201.714 34.417 C 201.716 34.875,201.748 35.043,201.786 34.789 C 201.825 34.536,201.824 34.161,201.784 33.956 C 201.744 33.751,201.713 33.958,201.714 34.417 M218.786 33.770 C 218.720 33.835,218.667 36.164,218.667 38.944 L 218.667 44.000 219.502 44.000 L 220.338 44.000 220.294 38.875 L 220.250 33.750 219.577 33.700 C 219.207 33.673,218.851 33.705,218.786 33.770 M222.333 38.824 L 222.333 44.000 223.080 44.000 L 223.827 44.000 223.872 40.292 L 223.917 36.583 226.385 40.292 L 228.854 44.000 229.677 44.000 L 230.500 44.000 230.500 38.824 L 230.500 33.648 229.792 33.699 L 229.083 33.750 229.000 37.471 L 228.917 41.191 228.000 39.822 C 227.496 39.069,227.008 38.334,226.917 38.189 C 226.470 37.482,225.417 35.898,225.295 35.750 C 225.220 35.658,224.876 35.171,224.532 34.667 C 223.938 33.796,223.867 33.747,223.120 33.699 L 222.333 33.648 222.333 38.824 M232.500 38.807 L 232.500 44.000 235.085 44.000 C 239.200 44.000,240.578 42.934,240.945 39.465 C 241.353 35.616,239.624 33.895,235.174 33.720 L 232.500 33.614 232.500 38.807 M242.438 33.922 C 242.279 34.336,242.319 38.890,242.496 40.577 C 242.771 43.186,243.865 44.165,246.500 44.161 C 249.981 44.157,250.654 43.041,250.611 37.342 L 250.583 33.750 250.191 33.695 C 249.976 33.664,249.620 33.684,249.400 33.739 L 249.000 33.840 248.996 37.045 C 248.990 41.864,248.635 42.667,246.510 42.667 C 244.455 42.667,244.268 42.262,244.167 37.583 L 244.083 33.750 243.313 33.700 C 242.723 33.662,242.518 33.714,242.438 33.922 M261.114 33.775 C 261.051 33.838,261.000 34.214,261.000 34.611 L 261.000 35.333 262.667 35.333 L 264.333 35.333 264.333 39.667 L 264.333 44.000 265.083 44.000 L 265.833 44.000 265.833 39.673 L 265.833 35.345 267.458 35.298 L 269.083 35.250 269.083 34.500 L 269.083 33.750 265.156 33.705 C 262.996 33.681,261.177 33.712,261.114 33.775 M270.458 33.757 C 270.390 33.830,270.333 36.164,270.333 38.944 L 270.333 44.000 271.083 44.000 L 271.833 44.000 271.833 41.833 L 271.833 39.667 272.542 39.649 C 274.487 39.601,274.731 39.786,276.576 42.708 L 277.392 44.000 278.362 44.000 C 278.896 44.000,279.333 43.968,279.333 43.929 C 279.333 43.764,278.119 41.834,277.902 41.655 C 277.773 41.547,277.667 41.353,277.667 41.222 C 277.667 41.092,277.325 40.621,276.908 40.175 L 276.150 39.365 276.714 39.178 C 278.851 38.473,279.071 35.065,277.043 34.098 C 276.370 33.777,270.717 33.485,270.458 33.757 M280.611 33.778 C 280.550 33.839,280.500 36.164,280.500 38.944 L 280.500 44.000 281.333 44.000 L 282.167 44.000 282.167 38.934 C 282.167 34.469,282.135 33.857,281.903 33.768 C 281.551 33.633,280.750 33.639,280.611 33.778 M286.890 33.875 C 286.819 33.990,286.601 34.533,286.405 35.083 C 286.210 35.633,285.598 37.208,285.045 38.583 C 284.002 41.180,283.167 43.508,283.167 43.820 C 283.167 43.924,283.502 44.000,283.961 44.000 L 284.755 44.000 285.052 43.125 C 285.216 42.644,285.470 41.969,285.617 41.625 L 285.884 41.000 287.818 41.000 L 289.752 41.000 289.973 41.708 C 290.094 42.098,290.348 42.776,290.537 43.216 L 290.881 44.016 291.732 43.966 C 292.476 43.923,292.577 43.875,292.533 43.583 C 292.479 43.230,291.274 40.258,290.505 38.583 C 290.253 38.033,289.915 37.208,289.756 36.750 C 288.748 33.862,288.621 33.667,287.762 33.667 C 287.348 33.667,286.962 33.759,286.890 33.875 M293.333 38.833 L 293.333 44.000 296.583 44.000 L 299.833 44.000 299.833 43.250 L 299.833 42.500 297.417 42.500 L 295.000 42.500 295.000 38.083 L 295.000 33.667 294.167 33.667 L 293.333 33.667 293.333 38.833 M304.577 33.874 C 304.532 33.991,304.515 36.299,304.539 39.002 L 304.583 43.917 308.375 43.961 L 312.167 44.006 312.167 43.253 L 312.167 42.500 309.167 42.500 L 306.167 42.500 306.167 41.004 L 306.167 39.508 308.875 39.462 L 311.583 39.417 311.635 38.708 L 311.686 38.000 308.926 38.000 L 306.167 38.000 306.167 36.671 L 306.167 35.341 309.042 35.296 L 311.917 35.250 311.917 34.500 L 311.917 33.750 308.288 33.705 C 305.458 33.670,304.641 33.707,304.577 33.874 M313.874 33.859 C 313.718 34.015,313.667 35.292,313.667 39.033 L 313.667 44.000 314.500 44.000 L 315.333 44.000 315.333 40.295 L 315.333 36.590 316.680 38.645 C 317.420 39.776,318.357 41.151,318.763 41.702 C 319.168 42.253,319.500 42.808,319.500 42.935 C 319.500 43.062,319.563 43.167,319.640 43.167 C 319.717 43.167,319.865 43.354,319.970 43.583 C 320.139 43.955,320.260 44.000,321.080 44.000 L 322.000 44.000 322.000 38.920 L 322.000 33.840 321.600 33.739 C 321.380 33.684,321.024 33.664,320.809 33.695 L 320.417 33.750 320.333 37.500 C 320.260 40.807,320.223 41.201,320.020 40.833 C 319.893 40.604,319.143 39.454,318.353 38.276 C 317.563 37.099,316.572 35.599,316.151 34.943 C 315.348 33.692,314.463 33.270,313.874 33.859 M334.833 38.824 L 334.833 44.000 335.669 44.000 L 336.505 44.000 336.461 38.875 L 336.417 33.750 335.625 33.699 L 334.833 33.648 334.833 38.824 M338.611 33.778 C 338.550 33.839,338.500 36.164,338.500 38.944 L 338.500 44.000 339.247 44.000 L 339.994 44.000 340.038 40.292 C 340.068 37.816,340.136 36.694,340.240 36.917 C 340.327 37.100,341.118 38.300,341.999 39.583 C 342.880 40.867,343.889 42.385,344.241 42.958 L 344.881 44.000 345.693 44.000 L 346.505 44.000 346.461 38.875 L 346.417 33.750 345.712 33.699 L 345.006 33.648 344.962 37.357 L 344.917 41.067 343.209 38.492 C 341.350 35.690,340.469 34.411,340.084 33.958 C 339.841 33.672,338.839 33.550,338.611 33.778 M348.611 33.778 C 348.550 33.839,348.500 36.164,348.500 38.944 L 348.500 44.000 352.333 44.000 L 356.167 44.000 356.167 43.250 L 356.167 42.500 353.167 42.500 L 350.167 42.500 350.167 41.000 L 350.167 39.500 352.917 39.500 L 355.667 39.500 355.667 38.750 L 355.667 38.000 352.917 38.000 L 350.167 38.000 350.167 36.671 L 350.167 35.341 353.042 35.296 L 355.917 35.250 355.967 34.458 L 356.018 33.667 352.370 33.667 C 350.364 33.667,348.672 33.717,348.611 33.778 M357.944 33.778 C 357.883 33.839,357.833 36.164,357.833 38.944 L 357.833 44.000 361.667 44.000 L 365.500 44.000 365.500 43.250 L 365.500 42.500 362.417 42.500 L 359.333 42.500 359.333 41.000 L 359.333 39.500 362.083 39.500 L 364.833 39.500 364.833 38.750 L 364.833 38.000 362.083 38.000 L 359.333 38.000 359.333 36.667 L 359.333 35.333 362.333 35.333 L 365.333 35.333 365.333 34.601 C 365.333 34.087,365.255 33.839,365.070 33.768 C 364.710 33.630,358.083 33.639,357.944 33.778 M367.167 38.833 L 367.167 44.000 367.917 44.000 L 368.667 44.000 368.667 41.849 L 368.667 39.699 369.458 39.641 C 369.894 39.609,370.429 39.609,370.648 39.640 C 371.128 39.707,372.528 41.126,372.953 41.975 C 373.120 42.309,373.438 42.902,373.659 43.292 L 374.061 44.000 375.114 44.000 C 376.338 44.000,376.327 44.031,375.530 42.809 C 374.253 40.849,373.620 39.987,373.233 39.683 L 372.834 39.369 373.262 39.262 C 375.561 38.685,376.078 35.736,374.135 34.285 C 373.604 33.888,371.955 33.684,369.208 33.674 L 367.167 33.667 367.167 38.833 M377.542 33.777 C 377.381 33.842,377.333 35.033,377.333 38.940 L 377.333 44.018 378.125 43.967 L 378.917 43.917 378.961 38.928 C 378.995 35.048,378.958 33.910,378.794 33.806 C 378.564 33.659,377.872 33.644,377.542 33.777 M381.000 38.833 L 381.000 44.000 381.750 44.000 L 382.500 44.000 382.500 40.404 L 382.500 36.808 383.089 37.579 C 384.086 38.886,385.167 40.473,385.167 40.632 C 385.167 40.715,385.300 40.936,385.464 41.125 C 385.627 41.313,386.133 42.037,386.589 42.733 L 387.417 44.000 388.208 44.000 L 389.000 44.000 389.000 38.833 L 389.000 33.667 388.253 33.667 L 387.506 33.667 387.462 37.372 L 387.417 41.076 386.872 40.227 C 386.573 39.760,386.146 39.167,385.923 38.908 C 385.701 38.649,385.318 38.068,385.073 37.617 C 384.669 36.875,383.178 34.690,382.576 33.958 C 382.421 33.769,382.102 33.667,381.668 33.667 L 381.000 33.667 381.000 38.833 M275.703 35.341 C 276.829 35.653,277.179 36.746,276.431 37.616 C 276.036 38.075,275.994 38.084,273.931 38.139 L 271.833 38.194 271.833 36.680 L 271.833 35.167 273.458 35.168 C 274.352 35.168,275.362 35.246,275.703 35.341 M372.408 35.303 C 373.550 35.505,373.921 36.666,373.164 37.670 C 372.867 38.065,372.763 38.086,370.760 38.139 L 368.667 38.194 368.667 36.680 L 368.667 35.167 370.208 35.176 C 371.056 35.182,372.046 35.238,372.408 35.303 M237.800 35.566 C 238.758 36.062,239.167 37.048,239.167 38.868 C 239.167 41.696,238.330 42.497,235.375 42.499 L 234.000 42.500 234.000 38.917 L 234.000 35.333 235.675 35.333 C 236.783 35.333,237.502 35.412,237.800 35.566 M289.119 39.375 C 289.197 39.637,289.060 39.667,287.787 39.667 L 286.368 39.667 286.491 39.125 C 286.559 38.827,286.864 37.928,287.168 37.127 L 287.722 35.672 288.377 37.377 C 288.737 38.316,289.071 39.215,289.119 39.375 M201.695 37.125 L 201.667 37.833 202.417 37.833 C 202.829 37.833,203.167 37.775,203.167 37.704 C 203.167 37.633,202.872 37.603,202.511 37.637 C 201.860 37.699,201.855 37.695,201.789 37.058 L 201.723 36.417 201.695 37.125 M201.695 39.496 C 201.722 40.222,201.725 40.227,201.788 39.625 C 201.851 39.020,201.874 39.000,202.510 39.000 C 202.871 39.000,203.166 38.944,203.166 38.875 C 203.166 38.806,202.828 38.748,202.416 38.746 L 201.667 38.741 201.695 39.496 M201.680 42.115 C 201.673 42.499,201.726 42.850,201.799 42.895 C 201.871 42.940,201.903 42.701,201.870 42.363 C 201.779 41.441,201.695 41.331,201.680 42.115 " stroke="none" fill="#bfbfbf" fill-rule="evenodd"/></g></svg>