<svg id="svg" version="1.1" xmlns="http://www.w3.org/2000/svg" xmlns:xlink="http://www.w3.org/1999/xlink" width="400" height="94.47236180904522" viewBox="0, 0, 400,94.47236180904522"><g id="svgg"><path id="path0" d="M316.167 8.013 C 314.641 8.247,312.667 8.714,312.667 8.840 C 312.667 8.905,312.480 8.958,312.252 8.958 C 311.807 8.958,309.120 10.000,309.028 10.208 C 308.997 10.277,308.869 10.333,308.742 10.333 C 308.405 10.333,306.989 11.140,306.458 11.635 C 306.206 11.870,306.000 12.005,306.000 11.936 C 306.000 11.866,305.890 11.909,305.756 12.030 C 305.195 12.536,305.005 12.667,304.831 12.667 C 304.542 12.667,300.307 16.990,300.419 17.171 C 300.474 17.260,300.440 17.333,300.343 17.333 C 300.246 17.333,300.167 17.446,300.167 17.583 C 300.167 17.721,300.093 17.833,300.002 17.833 C 299.593 17.833,297.556 21.682,296.871 23.750 C 296.377 25.242,296.199 25.915,295.838 27.667 C 295.572 28.956,295.691 73.520,295.964 74.833 C 296.260 76.261,296.444 76.941,296.599 77.189 C 296.677 77.314,296.744 77.492,296.747 77.583 C 296.762 78.016,297.399 79.667,297.551 79.667 C 297.645 79.667,297.678 79.711,297.623 79.766 C 297.506 79.883,299.130 83.058,299.349 83.139 C 299.432 83.169,299.500 83.296,299.500 83.421 C 299.500 83.546,299.667 83.765,299.870 83.907 C 300.074 84.050,300.182 84.167,300.109 84.167 C 299.727 84.167,302.934 87.638,304.336 88.743 C 306.095 90.128,308.564 91.583,308.854 91.404 C 308.966 91.335,309.008 91.353,308.950 91.446 C 308.733 91.798,312.558 93.148,315.083 93.612 C 316.712 93.912,381.571 93.854,381.792 93.553 C 381.951 93.336,382.000 91.481,382.000 85.639 L 382.000 78.009 381.507 77.753 C 381.069 77.527,377.445 77.499,349.268 77.501 C 325.978 77.503,317.398 77.453,317.053 77.314 C 316.059 76.914,315.727 76.745,315.041 76.289 C 314.226 75.746,313.386 75.000,313.590 75.000 C 313.667 75.000,313.541 74.794,313.312 74.542 C 312.943 74.137,312.744 73.735,312.148 72.200 C 312.067 71.990,312.000 68.034,312.000 63.409 L 312.000 55.000 339.135 55.000 C 362.301 55.000,366.317 54.965,366.593 54.764 C 367.118 54.380,367.186 39.596,366.665 39.037 L 366.320 38.667 339.160 38.667 L 312.000 38.667 312.000 34.373 C 312.000 30.567,312.036 29.980,312.317 29.211 C 312.790 27.916,313.067 27.333,313.207 27.333 C 313.277 27.333,313.333 27.256,313.333 27.161 C 313.333 26.902,314.311 25.985,315.221 25.390 C 316.008 24.875,316.299 24.744,317.512 24.357 C 317.949 24.217,326.557 24.167,349.853 24.167 C 374.323 24.167,381.646 24.121,381.800 23.967 C 382.193 23.573,382.076 8.219,381.678 8.006 C 381.281 7.793,317.551 7.800,316.167 8.013 " stroke="none" fill="#948c74" fill-rule="evenodd"></path><path id="path1" d="M125.020 4.392 C 124.882 4.559,124.844 16.379,124.875 49.184 L 124.917 93.750 133.148 93.793 C 139.087 93.824,141.442 93.784,141.606 93.648 C 141.796 93.490,141.833 88.952,141.833 65.776 C 141.833 40.673,141.858 38.127,142.093 38.463 C 142.235 38.667,142.426 38.833,142.516 38.833 C 142.607 38.833,142.846 38.989,143.049 39.180 C 143.401 39.512,144.255 40.174,147.000 42.244 C 147.688 42.763,148.380 43.293,148.539 43.423 C 149.923 44.553,151.858 46.000,151.984 46.000 C 152.069 46.000,152.164 46.064,152.194 46.142 C 152.225 46.220,153.000 46.858,153.917 47.560 C 154.833 48.262,155.702 48.948,155.847 49.085 C 155.993 49.222,156.193 49.333,156.292 49.333 C 156.391 49.333,156.497 49.390,156.528 49.458 C 156.625 49.677,158.289 51.000,158.468 51.000 C 158.562 51.000,158.664 51.067,158.694 51.149 C 158.759 51.320,160.440 52.667,160.590 52.667 C 160.645 52.667,160.785 52.760,160.901 52.875 C 161.017 52.990,161.321 53.233,161.576 53.417 C 161.832 53.600,162.163 53.866,162.312 54.009 C 162.858 54.529,164.831 56.000,164.983 56.000 C 165.069 56.000,165.164 56.056,165.194 56.125 C 165.296 56.354,166.960 57.667,167.148 57.667 C 167.250 57.667,167.333 57.726,167.333 57.798 C 167.333 58.134,169.109 59.251,169.664 59.264 C 170.165 59.275,171.745 58.295,172.500 57.503 C 172.546 57.455,173.033 57.081,173.583 56.672 C 174.693 55.846,174.913 55.670,175.458 55.174 C 175.665 54.987,175.874 54.833,175.923 54.833 C 175.973 54.833,177.053 54.027,178.323 53.042 C 179.593 52.056,181.173 50.837,181.836 50.333 C 182.498 49.829,183.199 49.287,183.395 49.128 C 183.590 48.969,184.500 48.270,185.417 47.575 C 186.333 46.880,187.108 46.242,187.139 46.156 C 187.169 46.070,187.266 46.000,187.353 46.000 C 187.476 46.000,191.148 43.255,192.072 42.472 C 192.170 42.389,192.816 41.893,193.508 41.369 C 194.200 40.845,195.381 39.945,196.133 39.368 L 197.500 38.318 197.521 65.743 C 197.532 80.826,197.551 93.238,197.563 93.325 C 197.626 93.810,198.098 93.836,206.177 93.793 L 214.417 93.750 214.459 49.146 C 214.504 0.513,214.567 3.851,213.620 4.289 C 213.212 4.478,210.310 6.769,210.148 7.031 C 210.092 7.121,209.997 7.187,209.936 7.177 C 209.876 7.168,209.735 7.237,209.622 7.331 C 209.509 7.425,208.985 7.815,208.458 8.196 C 207.931 8.577,207.500 8.952,207.500 9.028 C 207.500 9.104,207.417 9.167,207.315 9.167 C 207.213 9.167,206.585 9.598,205.919 10.125 C 205.254 10.652,203.500 12.015,202.021 13.153 C 200.543 14.291,199.333 15.285,199.333 15.361 C 199.333 15.437,199.277 15.481,199.208 15.458 C 199.091 15.419,197.254 16.748,196.633 17.321 C 196.256 17.670,196.028 17.848,195.333 18.335 C 195.012 18.561,194.637 18.837,194.500 18.948 C 194.362 19.060,193.762 19.533,193.167 20.000 C 192.571 20.467,191.971 20.940,191.833 21.052 C 191.696 21.163,191.321 21.438,191.000 21.661 C 190.679 21.885,190.295 22.202,190.147 22.367 C 189.999 22.532,189.811 22.668,189.730 22.669 C 189.650 22.670,189.252 22.970,188.847 23.336 C 188.442 23.701,188.062 24.000,188.003 24.000 C 187.944 24.000,187.751 24.133,187.573 24.296 C 187.395 24.459,186.987 24.774,186.667 24.997 C 186.346 25.219,185.970 25.517,185.831 25.659 C 185.692 25.801,185.453 25.992,185.300 26.083 C 184.786 26.391,182.251 28.386,182.194 28.527 C 182.164 28.604,182.049 28.667,181.940 28.667 C 181.830 28.667,181.632 28.817,181.500 29.000 C 181.368 29.183,181.180 29.333,181.084 29.333 C 180.987 29.333,180.783 29.465,180.631 29.625 C 180.479 29.785,180.181 30.045,179.969 30.202 C 179.757 30.359,179.208 30.764,178.750 31.103 C 178.292 31.442,177.892 31.783,177.861 31.860 C 177.831 31.937,177.732 32.000,177.642 32.000 C 177.551 32.000,177.051 32.341,176.530 32.758 C 175.425 33.643,175.368 33.687,172.750 35.675 C 171.650 36.510,170.725 37.262,170.694 37.347 C 170.664 37.431,170.557 37.500,170.458 37.500 C 170.358 37.500,170.139 37.625,169.970 37.777 C 169.683 38.037,169.627 38.024,169.040 37.558 C 167.577 36.394,166.170 35.333,166.090 35.333 C 165.994 35.333,165.437 34.891,165.021 34.485 C 164.872 34.339,164.225 33.832,163.583 33.357 C 162.942 32.882,162.308 32.403,162.175 32.293 C 162.043 32.182,161.555 31.813,161.092 31.473 C 160.629 31.132,160.137 30.747,160.000 30.617 C 159.862 30.487,159.375 30.104,158.917 29.765 C 157.783 28.927,157.492 28.702,155.667 27.256 C 154.796 26.566,153.990 26.001,153.875 26.001 C 153.760 26.000,153.667 25.935,153.667 25.856 C 153.667 25.777,153.123 25.310,152.458 24.818 C 151.794 24.327,151.100 23.784,150.917 23.613 C 150.733 23.442,150.246 23.069,149.833 22.784 C 149.421 22.499,148.984 22.168,148.862 22.048 C 148.740 21.929,148.491 21.751,148.308 21.653 C 148.125 21.555,147.849 21.364,147.696 21.228 C 147.345 20.917,145.410 19.387,144.667 18.833 C 144.360 18.604,143.714 18.098,143.232 17.708 C 142.750 17.319,142.276 17.000,142.178 17.000 C 142.080 17.000,142.000 16.944,142.000 16.875 C 141.999 16.806,141.166 16.112,140.147 15.333 C 139.128 14.554,137.741 13.484,137.064 12.955 C 136.387 12.426,135.833 12.020,135.833 12.053 C 135.833 12.087,135.477 11.786,135.042 11.386 C 134.606 10.986,134.044 10.567,133.792 10.455 C 133.540 10.343,133.333 10.196,133.333 10.128 C 133.333 10.060,133.018 9.797,132.633 9.544 C 132.248 9.291,131.742 8.907,131.508 8.691 C 131.274 8.476,130.258 7.675,129.250 6.912 C 128.242 6.149,127.015 5.219,126.525 4.846 C 125.567 4.116,125.313 4.040,125.020 4.392 " stroke="none" fill="#f34b3c" fill-rule="evenodd"></path><path id="path2" d="M248.458 4.680 C 247.978 4.960,248.008 93.403,248.489 93.661 C 249.076 93.975,264.585 93.891,264.905 93.571 C 265.306 93.170,265.306 5.163,264.905 4.762 C 264.588 4.445,248.995 4.368,248.458 4.680 " stroke="none" fill="#444444" fill-rule="evenodd"></path><path id="path3" d="M17.078 4.707 C 17.034 4.822,17.017 24.904,17.041 49.333 L 17.083 93.750 42.000 93.731 C 59.463 93.718,67.266 93.656,68.083 93.526 C 68.725 93.423,69.625 93.293,70.083 93.237 C 70.542 93.180,70.988 93.067,71.075 92.984 C 71.162 92.901,71.419 92.833,71.647 92.833 C 71.874 92.833,72.290 92.763,72.572 92.678 C 72.853 92.593,73.421 92.434,73.833 92.326 C 74.246 92.217,74.733 92.073,74.917 92.004 C 75.100 91.936,75.550 91.789,75.917 91.679 C 76.283 91.568,76.733 91.415,76.917 91.338 C 77.100 91.261,77.887 90.951,78.667 90.649 C 88.044 87.012,96.910 78.797,101.676 69.328 C 102.221 68.246,102.667 67.316,102.667 67.262 C 102.667 67.207,102.824 66.808,103.017 66.373 C 103.209 65.939,103.430 65.433,103.508 65.250 C 103.706 64.783,104.579 62.068,104.821 61.167 C 104.932 60.754,105.093 60.186,105.178 59.905 C 105.263 59.623,105.333 59.207,105.333 58.980 C 105.333 58.753,105.401 58.495,105.484 58.408 C 105.567 58.321,105.681 57.875,105.738 57.417 C 105.794 56.958,105.922 56.021,106.021 55.333 C 106.265 53.637,106.393 44.681,106.179 44.250 C 106.088 44.067,105.978 43.467,105.935 42.917 C 105.709 40.076,104.592 35.770,103.167 32.250 C 101.996 29.355,99.554 25.074,97.479 22.275 C 96.491 20.942,96.200 20.605,94.018 18.250 C 92.039 16.114,89.397 13.862,87.167 12.410 C 86.479 11.963,85.879 11.546,85.833 11.484 C 84.958 10.301,76.412 6.635,72.333 5.694 C 71.921 5.598,71.396 5.471,71.167 5.410 C 70.643 5.271,69.285 5.036,67.667 4.804 C 65.707 4.524,17.183 4.430,17.078 4.707 M302.245 14.875 L 301.250 15.917 302.292 14.922 C 302.865 14.375,303.333 13.906,303.333 13.880 C 303.333 13.757,303.169 13.907,302.245 14.875 M65.583 21.667 C 65.640 21.758,66.052 21.833,66.500 21.833 C 66.948 21.833,67.360 21.908,67.417 22.000 C 67.473 22.092,67.773 22.167,68.083 22.167 C 68.393 22.167,68.693 22.242,68.750 22.333 C 68.807 22.425,69.069 22.500,69.333 22.500 C 69.598 22.500,69.860 22.575,69.917 22.667 C 69.973 22.758,70.166 22.833,70.345 22.833 C 70.525 22.833,70.801 22.900,70.961 22.981 C 71.120 23.062,71.438 23.202,71.667 23.293 C 76.109 25.060,80.128 28.025,83.245 31.833 C 84.982 33.955,87.667 38.637,87.667 39.544 C 87.667 39.692,87.733 39.854,87.813 39.904 C 87.894 39.954,88.001 40.165,88.052 40.373 C 88.102 40.580,88.229 41.050,88.333 41.417 C 89.120 44.187,89.216 45.031,89.216 49.167 C 89.216 53.274,89.138 53.977,88.364 56.833 C 86.231 64.710,79.701 71.902,71.833 75.039 C 71.604 75.131,71.286 75.272,71.127 75.353 C 70.968 75.434,70.691 75.500,70.512 75.500 C 70.333 75.500,70.140 75.575,70.083 75.667 C 70.027 75.758,69.764 75.833,69.500 75.833 C 69.236 75.833,68.973 75.908,68.917 76.000 C 68.860 76.092,68.560 76.167,68.250 76.167 C 67.940 76.167,67.640 76.242,67.583 76.333 C 67.527 76.425,67.162 76.500,66.773 76.500 C 66.385 76.500,65.995 76.570,65.908 76.656 C 65.621 76.939,62.410 77.017,47.958 77.096 L 33.667 77.174 33.667 49.337 L 33.667 21.500 49.573 21.500 C 59.998 21.500,65.516 21.557,65.583 21.667 M333.805 24.292 C 342.543 24.316,356.793 24.316,365.472 24.292 C 374.150 24.268,367.000 24.248,349.583 24.248 C 332.167 24.248,325.066 24.268,333.805 24.292 M302.333 87.083 C 302.831 87.587,303.276 88.000,303.322 88.000 C 303.368 88.000,302.998 87.587,302.500 87.083 C 302.002 86.579,301.557 86.167,301.511 86.167 C 301.466 86.167,301.835 86.579,302.333 87.083 " stroke="none" fill="#040404" fill-rule="evenodd"></path></g></svg>